<?xml version="1.0" encoding="UTF-8" standalone="no"?>
<!DOCTYPE svg PUBLIC "-//W3C//DTD SVG 1.1//EN"
 "http://www.w3.org/Graphics/SVG/1.1/DTD/svg11.dtd">
<!-- Generated by graphviz version 2.47.3 (20210619.1520)
 -->
<!-- Title: dependencies Pages: 1 -->
<svg width="410pt" height="174pt"
 viewBox="0.00 0.00 410.00 173.80" xmlns="http://www.w3.org/2000/svg" xmlns:xlink="http://www.w3.org/1999/xlink">
<g id="graph0" class="graph" transform="scale(1 1) rotate(0) translate(4 169.8)">
<title>dependencies</title>
<polygon fill="white" stroke="transparent" points="-4,4 -4,-169.8 406,-169.8 406,4 -4,4"/>
<text text-anchor="middle" x="201" y="-8.2" font-family="sans-serif" font-size="14.00">dependencies</text>
<g id="clust1" class="cluster">
<title>cluster_SettingsPageModule</title>
<polygon fill="none" stroke="black" stroke-dasharray="1,5" points="8,-32.8 8,-157.8 394,-157.8 394,-32.8 8,-32.8"/>
</g>
<g id="clust4" class="cluster">
<title>cluster_SettingsPageModule_imports</title>
<polygon fill="none" stroke="black" points="194,-40.8 194,-92.8 386,-92.8 386,-40.8 194,-40.8"/>
</g>
<g id="clust2" class="cluster">
<title>cluster_SettingsPageModule_declarations</title>
<polygon fill="none" stroke="black" points="16,-40.8 16,-92.8 186,-92.8 186,-40.8 16,-40.8"/>
</g>
<!-- SettingsPageComponent -->
<g id="node1" class="node">
<title>SettingsPageComponent</title>
<polygon fill="#ffffb3" stroke="black" points="177.66,-84.8 24.34,-84.8 24.34,-48.8 177.66,-48.8 177.66,-84.8"/>
<text text-anchor="middle" x="101" y="-62.6" font-family="Times,serif" font-size="14.00">SettingsPageComponent</text>
</g>
<!-- SettingsPageModule -->
<g id="node2" class="node">
<title>SettingsPageModule</title>
<polygon fill="#8dd3c7" stroke="black" points="260.88,-149.8 257.88,-153.8 236.88,-153.8 233.88,-149.8 129.12,-149.8 129.12,-113.8 260.88,-113.8 260.88,-149.8"/>
<text text-anchor="middle" x="195" y="-127.6" font-family="Times,serif" font-size="14.00">SettingsPageModule</text>
</g>
<!-- SettingsPageComponent&#45;&gt;SettingsPageModule -->
<g id="edge1" class="edge">
<title>SettingsPageComponent&#45;&gt;SettingsPageModule</title>
<path fill="none" stroke="black" d="M153.45,-84.91C153.45,-84.91 153.45,-103.79 153.45,-103.79"/>
<polygon fill="black" stroke="black" points="149.95,-103.79 153.45,-113.79 156.95,-103.79 149.95,-103.79"/>
</g>
<!-- SettingsPageRoutingModule -->
<g id="node3" class="node">
<title>SettingsPageRoutingModule</title>
<polygon fill="#8dd3c7" stroke="black" points="378.49,-84.8 375.49,-88.8 354.49,-88.8 351.49,-84.8 201.51,-84.8 201.51,-48.8 378.49,-48.8 378.49,-84.8"/>
<text text-anchor="middle" x="290" y="-62.6" font-family="Times,serif" font-size="14.00">SettingsPageRoutingModule</text>
</g>
<!-- SettingsPageRoutingModule&#45;&gt;SettingsPageModule -->
<g id="edge2" class="edge">
<title>SettingsPageRoutingModule&#45;&gt;SettingsPageModule</title>
<path fill="none" stroke="black" d="M231.22,-84.91C231.22,-84.91 231.22,-103.79 231.22,-103.79"/>
<polygon fill="black" stroke="black" points="227.72,-103.79 231.22,-113.79 234.72,-103.79 227.72,-103.79"/>
</g>
</g>
</svg>
