<?xml version="1.0" encoding="UTF-8" standalone="no"?>
<!DOCTYPE svg PUBLIC "-//W3C//DTD SVG 1.1//EN"
 "http://www.w3.org/Graphics/SVG/1.1/DTD/svg11.dtd">
<!-- Generated by graphviz version 2.47.3 (20210619.1520)
 -->
<!-- Title: dependencies Pages: 1 -->
<svg width="692pt" height="247pt"
 viewBox="0.00 0.00 692.00 246.80" xmlns="http://www.w3.org/2000/svg" xmlns:xlink="http://www.w3.org/1999/xlink">
<g id="graph0" class="graph" transform="scale(1 1) rotate(0) translate(4 242.8)">
<title>dependencies</title>
<polygon fill="white" stroke="transparent" points="-4,4 -4,-242.8 688,-242.8 688,4 -4,4"/>
<text text-anchor="middle" x="342" y="-8.2" font-family="sans-serif" font-size="14.00">dependencies</text>
<g id="clust1" class="cluster">
<title>cluster_AppModule</title>
<polygon fill="none" stroke="black" stroke-dasharray="1,5" points="8,-32.8 8,-230.8 676,-230.8 676,-32.8 8,-32.8"/>
</g>
<g id="clust6" class="cluster">
<title>cluster_AppModule_bootstrap</title>
<polygon fill="none" stroke="black" points="253,-170.8 253,-222.8 377,-222.8 377,-170.8 253,-170.8"/>
</g>
<g id="clust4" class="cluster">
<title>cluster_AppModule_imports</title>
<polygon fill="none" stroke="black" points="146,-40.8 146,-92.8 668,-92.8 668,-40.8 146,-40.8"/>
</g>
<g id="clust2" class="cluster">
<title>cluster_AppModule_declarations</title>
<polygon fill="none" stroke="black" points="16,-40.8 16,-92.8 138,-92.8 138,-40.8 16,-40.8"/>
</g>
<!-- AppComponent -->
<g id="node1" class="node">
<title>AppComponent</title>
<polygon fill="#ffffb3" stroke="black" points="129.94,-84.8 24.06,-84.8 24.06,-48.8 129.94,-48.8 129.94,-84.8"/>
<text text-anchor="middle" x="77" y="-62.6" font-family="Times,serif" font-size="14.00">AppComponent</text>
</g>
<!-- AppModule -->
<g id="node2" class="node">
<title>AppModule</title>
<polygon fill="#8dd3c7" stroke="black" points="356.66,-149.8 353.66,-153.8 332.66,-153.8 329.66,-149.8 273.34,-149.8 273.34,-113.8 356.66,-113.8 356.66,-149.8"/>
<text text-anchor="middle" x="315" y="-127.6" font-family="Times,serif" font-size="14.00">AppModule</text>
</g>
<!-- AppComponent&#45;&gt;AppModule -->
<g id="edge1" class="edge">
<title>AppComponent&#45;&gt;AppModule</title>
<path fill="none" stroke="black" d="M77,-85.08C77,-106.12 77,-137.8 77,-137.8 77,-137.8 263.27,-137.8 263.27,-137.8"/>
<polygon fill="black" stroke="black" points="263.27,-141.3 273.27,-137.8 263.27,-134.3 263.27,-141.3"/>
</g>
<!-- AppComponent  -->
<g id="node7" class="node">
<title>AppComponent </title>
<polygon fill="#80b1d3" stroke="black" points="369.44,-214.8 260.56,-214.8 260.56,-178.8 369.44,-178.8 369.44,-214.8"/>
<text text-anchor="middle" x="315" y="-192.6" font-family="Times,serif" font-size="14.00">AppComponent </text>
</g>
<!-- AppModule&#45;&gt;AppComponent  -->
<g id="edge6" class="edge">
<title>AppModule&#45;&gt;AppComponent </title>
<path fill="none" stroke="black" stroke-dasharray="1,5" d="M315,-149.91C315,-149.91 315,-168.79 315,-168.79"/>
<polygon fill="black" stroke="black" points="311.5,-168.79 315,-178.79 318.5,-168.79 311.5,-168.79"/>
</g>
<!-- AppRoutingModule -->
<g id="node3" class="node">
<title>AppRoutingModule</title>
<polygon fill="#8dd3c7" stroke="black" points="660.27,-84.8 657.27,-88.8 636.27,-88.8 633.27,-84.8 531.73,-84.8 531.73,-48.8 660.27,-48.8 660.27,-84.8"/>
<text text-anchor="middle" x="596" y="-62.6" font-family="Times,serif" font-size="14.00">AppRoutingModule</text>
</g>
<!-- AppRoutingModule&#45;&gt;AppModule -->
<g id="edge2" class="edge">
<title>AppRoutingModule&#45;&gt;AppModule</title>
<path fill="none" stroke="black" d="M596,-85.08C596,-106.12 596,-137.8 596,-137.8 596,-137.8 366.77,-137.8 366.77,-137.8"/>
<polygon fill="black" stroke="black" points="366.77,-134.3 356.77,-137.8 366.77,-141.3 366.77,-134.3"/>
</g>
<!-- AuthorizationModule -->
<g id="node4" class="node">
<title>AuthorizationModule</title>
<polygon fill="#8dd3c7" stroke="black" points="513.81,-84.8 510.81,-88.8 489.81,-88.8 486.81,-84.8 376.19,-84.8 376.19,-48.8 513.81,-48.8 513.81,-84.8"/>
<text text-anchor="middle" x="445" y="-62.6" font-family="Times,serif" font-size="14.00">AuthorizationModule</text>
</g>
<!-- AuthorizationModule&#45;&gt;AppModule -->
<g id="edge3" class="edge">
<title>AuthorizationModule&#45;&gt;AppModule</title>
<path fill="none" stroke="black" d="M445,-84.82C445,-102.17 445,-125.8 445,-125.8 445,-125.8 366.85,-125.8 366.85,-125.8"/>
<polygon fill="black" stroke="black" points="366.85,-122.3 356.85,-125.8 366.85,-129.3 366.85,-122.3"/>
</g>
<!-- CoreModule -->
<g id="node5" class="node">
<title>CoreModule</title>
<polygon fill="#8dd3c7" stroke="black" points="358.26,-84.8 355.26,-88.8 334.26,-88.8 331.26,-84.8 271.74,-84.8 271.74,-48.8 358.26,-48.8 358.26,-84.8"/>
<text text-anchor="middle" x="315" y="-62.6" font-family="Times,serif" font-size="14.00">CoreModule</text>
</g>
<!-- CoreModule&#45;&gt;AppModule -->
<g id="edge4" class="edge">
<title>CoreModule&#45;&gt;AppModule</title>
<path fill="none" stroke="black" d="M315,-84.91C315,-84.91 315,-103.79 315,-103.79"/>
<polygon fill="black" stroke="black" points="311.5,-103.79 315,-113.79 318.5,-103.79 311.5,-103.79"/>
</g>
<!-- LayoutModule -->
<g id="node6" class="node">
<title>LayoutModule</title>
<polygon fill="#8dd3c7" stroke="black" points="253.71,-84.8 250.71,-88.8 229.71,-88.8 226.71,-84.8 154.29,-84.8 154.29,-48.8 253.71,-48.8 253.71,-84.8"/>
<text text-anchor="middle" x="204" y="-62.6" font-family="Times,serif" font-size="14.00">LayoutModule</text>
</g>
<!-- LayoutModule&#45;&gt;AppModule -->
<g id="edge5" class="edge">
<title>LayoutModule&#45;&gt;AppModule</title>
<path fill="none" stroke="black" d="M204,-84.82C204,-102.17 204,-125.8 204,-125.8 204,-125.8 263.04,-125.8 263.04,-125.8"/>
<polygon fill="black" stroke="black" points="263.04,-129.3 273.04,-125.8 263.04,-122.3 263.04,-129.3"/>
</g>
</g>
</svg>
