<?xml version="1.0" encoding="UTF-8" standalone="no"?>
<!DOCTYPE svg PUBLIC "-//W3C//DTD SVG 1.1//EN"
 "http://www.w3.org/Graphics/SVG/1.1/DTD/svg11.dtd">
<!-- Generated by graphviz version 2.47.3 (20210619.1520)
 -->
<!-- Title: dependencies Pages: 1 -->
<svg width="388pt" height="174pt"
 viewBox="0.00 0.00 388.00 173.80" xmlns="http://www.w3.org/2000/svg" xmlns:xlink="http://www.w3.org/1999/xlink">
<g id="graph0" class="graph" transform="scale(1 1) rotate(0) translate(4 169.8)">
<title>dependencies</title>
<polygon fill="white" stroke="transparent" points="-4,4 -4,-169.8 384,-169.8 384,4 -4,4"/>
<text text-anchor="middle" x="190" y="-8.2" font-family="sans-serif" font-size="14.00">dependencies</text>
<g id="clust1" class="cluster">
<title>cluster_HomePageModule</title>
<polygon fill="none" stroke="black" stroke-dasharray="1,5" points="8,-32.8 8,-157.8 372,-157.8 372,-32.8 8,-32.8"/>
</g>
<g id="clust4" class="cluster">
<title>cluster_HomePageModule_imports</title>
<polygon fill="none" stroke="black" points="182,-40.8 182,-92.8 364,-92.8 364,-40.8 182,-40.8"/>
</g>
<g id="clust2" class="cluster">
<title>cluster_HomePageModule_declarations</title>
<polygon fill="none" stroke="black" points="16,-40.8 16,-92.8 174,-92.8 174,-40.8 16,-40.8"/>
</g>
<!-- HomePageComponent -->
<g id="node1" class="node">
<title>HomePageComponent</title>
<polygon fill="#ffffb3" stroke="black" points="166.26,-84.8 23.74,-84.8 23.74,-48.8 166.26,-48.8 166.26,-84.8"/>
<text text-anchor="middle" x="95" y="-62.6" font-family="Times,serif" font-size="14.00">HomePageComponent</text>
</g>
<!-- HomePageModule -->
<g id="node2" class="node">
<title>HomePageModule</title>
<polygon fill="#8dd3c7" stroke="black" points="244.47,-149.8 241.47,-153.8 220.47,-153.8 217.47,-149.8 123.53,-149.8 123.53,-113.8 244.47,-113.8 244.47,-149.8"/>
<text text-anchor="middle" x="184" y="-127.6" font-family="Times,serif" font-size="14.00">HomePageModule</text>
</g>
<!-- HomePageComponent&#45;&gt;HomePageModule -->
<g id="edge1" class="edge">
<title>HomePageComponent&#45;&gt;HomePageModule</title>
<path fill="none" stroke="black" d="M144.95,-84.91C144.95,-84.91 144.95,-103.79 144.95,-103.79"/>
<polygon fill="black" stroke="black" points="141.45,-103.79 144.95,-113.79 148.45,-103.79 141.45,-103.79"/>
</g>
<!-- HomePageRoutingModule -->
<g id="node3" class="node">
<title>HomePageRoutingModule</title>
<polygon fill="#8dd3c7" stroke="black" points="356.09,-84.8 353.09,-88.8 332.09,-88.8 329.09,-84.8 189.91,-84.8 189.91,-48.8 356.09,-48.8 356.09,-84.8"/>
<text text-anchor="middle" x="273" y="-62.6" font-family="Times,serif" font-size="14.00">HomePageRoutingModule</text>
</g>
<!-- HomePageRoutingModule&#45;&gt;HomePageModule -->
<g id="edge2" class="edge">
<title>HomePageRoutingModule&#45;&gt;HomePageModule</title>
<path fill="none" stroke="black" d="M217.22,-84.91C217.22,-84.91 217.22,-103.79 217.22,-103.79"/>
<polygon fill="black" stroke="black" points="213.72,-103.79 217.22,-113.79 220.72,-103.79 213.72,-103.79"/>
</g>
</g>
</svg>
