<?xml version="1.0" encoding="UTF-8" standalone="no"?>
<!DOCTYPE svg PUBLIC "-//W3C//DTD SVG 1.1//EN"
 "http://www.w3.org/Graphics/SVG/1.1/DTD/svg11.dtd">
<!-- Generated by graphviz version 2.47.3 (20210619.1520)
 -->
<!-- Title: dependencies Pages: 1 -->
<svg width="396pt" height="174pt"
 viewBox="0.00 0.00 396.00 173.80" xmlns="http://www.w3.org/2000/svg" xmlns:xlink="http://www.w3.org/1999/xlink">
<g id="graph0" class="graph" transform="scale(1 1) rotate(0) translate(4 169.8)">
<title>dependencies</title>
<polygon fill="white" stroke="transparent" points="-4,4 -4,-169.8 392,-169.8 392,4 -4,4"/>
<text text-anchor="middle" x="194" y="-8.2" font-family="sans-serif" font-size="14.00">dependencies</text>
<g id="clust1" class="cluster">
<title>cluster_ProfilePageModule</title>
<polygon fill="none" stroke="black" stroke-dasharray="1,5" points="8,-32.8 8,-157.8 380,-157.8 380,-32.8 8,-32.8"/>
</g>
<g id="clust4" class="cluster">
<title>cluster_ProfilePageModule_imports</title>
<polygon fill="none" stroke="black" points="186,-40.8 186,-92.8 372,-92.8 372,-40.8 186,-40.8"/>
</g>
<g id="clust2" class="cluster">
<title>cluster_ProfilePageModule_declarations</title>
<polygon fill="none" stroke="black" points="16,-40.8 16,-92.8 178,-92.8 178,-40.8 16,-40.8"/>
</g>
<!-- ProfilePageComponent -->
<g id="node1" class="node">
<title>ProfilePageComponent</title>
<polygon fill="#ffffb3" stroke="black" points="170.14,-84.8 23.86,-84.8 23.86,-48.8 170.14,-48.8 170.14,-84.8"/>
<text text-anchor="middle" x="97" y="-62.6" font-family="Times,serif" font-size="14.00">ProfilePageComponent</text>
</g>
<!-- ProfilePageModule -->
<g id="node2" class="node">
<title>ProfilePageModule</title>
<polygon fill="#8dd3c7" stroke="black" points="250.36,-149.8 247.36,-153.8 226.36,-153.8 223.36,-149.8 125.64,-149.8 125.64,-113.8 250.36,-113.8 250.36,-149.8"/>
<text text-anchor="middle" x="188" y="-127.6" font-family="Times,serif" font-size="14.00">ProfilePageModule</text>
</g>
<!-- ProfilePageComponent&#45;&gt;ProfilePageModule -->
<g id="edge1" class="edge">
<title>ProfilePageComponent&#45;&gt;ProfilePageModule</title>
<path fill="none" stroke="black" d="M147.95,-84.91C147.95,-84.91 147.95,-103.79 147.95,-103.79"/>
<polygon fill="black" stroke="black" points="144.45,-103.79 147.95,-113.79 151.45,-103.79 144.45,-103.79"/>
</g>
<!-- ProfilePageRoutingModule -->
<g id="node3" class="node">
<title>ProfilePageRoutingModule</title>
<polygon fill="#8dd3c7" stroke="black" points="363.98,-84.8 360.98,-88.8 339.98,-88.8 336.98,-84.8 194.02,-84.8 194.02,-48.8 363.98,-48.8 363.98,-84.8"/>
<text text-anchor="middle" x="279" y="-62.6" font-family="Times,serif" font-size="14.00">ProfilePageRoutingModule</text>
</g>
<!-- ProfilePageRoutingModule&#45;&gt;ProfilePageModule -->
<g id="edge2" class="edge">
<title>ProfilePageRoutingModule&#45;&gt;ProfilePageModule</title>
<path fill="none" stroke="black" d="M222.22,-84.91C222.22,-84.91 222.22,-103.79 222.22,-103.79"/>
<polygon fill="black" stroke="black" points="218.72,-103.79 222.22,-113.79 225.72,-103.79 218.72,-103.79"/>
</g>
</g>
</svg>
