<?xml version="1.0" encoding="UTF-8" standalone="no"?>
<!DOCTYPE svg PUBLIC "-//W3C//DTD SVG 1.1//EN"
 "http://www.w3.org/Graphics/SVG/1.1/DTD/svg11.dtd">
<!-- Generated by graphviz version 2.47.3 (20210619.1520)
 -->
<!-- Title: dependencies Pages: 1 -->
<svg width="1556pt" height="247pt"
 viewBox="0.00 0.00 1556.00 246.80" xmlns="http://www.w3.org/2000/svg" xmlns:xlink="http://www.w3.org/1999/xlink">
<g id="graph0" class="graph" transform="scale(1 1) rotate(0) translate(4 242.8)">
<title>dependencies</title>
<polygon fill="white" stroke="transparent" points="-4,4 -4,-242.8 1552,-242.8 1552,4 -4,4"/>
<text text-anchor="middle" x="774" y="-8.2" font-family="sans-serif" font-size="14.00">dependencies</text>
<g id="clust1" class="cluster">
<title>cluster_LayoutModule</title>
<polygon fill="none" stroke="black" stroke-dasharray="1,5" points="8,-32.8 8,-230.8 1540,-230.8 1540,-32.8 8,-32.8"/>
</g>
<g id="clust2" class="cluster">
<title>cluster_LayoutModule_declarations</title>
<polygon fill="none" stroke="black" points="16,-40.8 16,-92.8 1532,-92.8 1532,-40.8 16,-40.8"/>
</g>
<g id="clust12" class="cluster">
<title>cluster_LayoutModule_exports</title>
<polygon fill="none" stroke="black" points="699,-170.8 699,-222.8 891,-222.8 891,-170.8 699,-170.8"/>
</g>
<!-- DesktopMenuComponent -->
<g id="node1" class="node">
<title>DesktopMenuComponent</title>
<polygon fill="#ffffb3" stroke="black" points="1524.15,-84.8 1363.85,-84.8 1363.85,-48.8 1524.15,-48.8 1524.15,-84.8"/>
<text text-anchor="middle" x="1444" y="-62.6" font-family="Times,serif" font-size="14.00">DesktopMenuComponent</text>
</g>
<!-- LayoutModule -->
<g id="node9" class="node">
<title>LayoutModule</title>
<polygon fill="#8dd3c7" stroke="black" points="844.71,-149.8 841.71,-153.8 820.71,-153.8 817.71,-149.8 745.29,-149.8 745.29,-113.8 844.71,-113.8 844.71,-149.8"/>
<text text-anchor="middle" x="795" y="-127.6" font-family="Times,serif" font-size="14.00">LayoutModule</text>
</g>
<!-- DesktopMenuComponent&#45;&gt;LayoutModule -->
<g id="edge1" class="edge">
<title>DesktopMenuComponent&#45;&gt;LayoutModule</title>
<path fill="none" stroke="black" d="M1444,-85.09C1444,-107.01 1444,-140.8 1444,-140.8 1444,-140.8 854.85,-140.8 854.85,-140.8"/>
<polygon fill="black" stroke="black" points="854.85,-137.3 844.85,-140.8 854.85,-144.3 854.85,-137.3"/>
</g>
<!-- HamburgerMenuButtonComponent -->
<g id="node2" class="node">
<title>HamburgerMenuButtonComponent</title>
<polygon fill="#ffffb3" stroke="black" points="1345.86,-84.8 1130.14,-84.8 1130.14,-48.8 1345.86,-48.8 1345.86,-84.8"/>
<text text-anchor="middle" x="1238" y="-62.6" font-family="Times,serif" font-size="14.00">HamburgerMenuButtonComponent</text>
</g>
<!-- HamburgerMenuButtonComponent&#45;&gt;LayoutModule -->
<g id="edge2" class="edge">
<title>HamburgerMenuButtonComponent&#45;&gt;LayoutModule</title>
<path fill="none" stroke="black" d="M1238,-84.91C1238,-104.14 1238,-131.8 1238,-131.8 1238,-131.8 854.96,-131.8 854.96,-131.8"/>
<polygon fill="black" stroke="black" points="854.96,-128.3 844.96,-131.8 854.96,-135.3 854.96,-128.3"/>
</g>
<!-- HeaderComponent -->
<g id="node3" class="node">
<title>HeaderComponent</title>
<polygon fill="#ffffb3" stroke="black" points="1111.74,-84.8 990.26,-84.8 990.26,-48.8 1111.74,-48.8 1111.74,-84.8"/>
<text text-anchor="middle" x="1051" y="-62.6" font-family="Times,serif" font-size="14.00">HeaderComponent</text>
</g>
<!-- HeaderComponent&#45;&gt;LayoutModule -->
<g id="edge3" class="edge">
<title>HeaderComponent&#45;&gt;LayoutModule</title>
<path fill="none" stroke="black" d="M1051,-84.83C1051,-101.2 1051,-122.8 1051,-122.8 1051,-122.8 854.66,-122.8 854.66,-122.8"/>
<polygon fill="black" stroke="black" points="854.66,-119.3 844.66,-122.8 854.66,-126.3 854.66,-119.3"/>
</g>
<!-- LayoutStructureComponent -->
<g id="node4" class="node">
<title>LayoutStructureComponent</title>
<polygon fill="#ffffb3" stroke="black" points="972.3,-84.8 799.7,-84.8 799.7,-48.8 972.3,-48.8 972.3,-84.8"/>
<text text-anchor="middle" x="886" y="-62.6" font-family="Times,serif" font-size="14.00">LayoutStructureComponent</text>
</g>
<!-- LayoutStructureComponent&#45;&gt;LayoutModule -->
<g id="edge4" class="edge">
<title>LayoutStructureComponent&#45;&gt;LayoutModule</title>
<path fill="none" stroke="black" d="M822.23,-84.91C822.23,-84.91 822.23,-103.79 822.23,-103.79"/>
<polygon fill="black" stroke="black" points="818.73,-103.79 822.23,-113.79 825.73,-103.79 818.73,-103.79"/>
</g>
<!-- MobileMenuComponent -->
<g id="node5" class="node">
<title>MobileMenuComponent</title>
<polygon fill="#ffffb3" stroke="black" points="782.43,-84.8 627.57,-84.8 627.57,-48.8 782.43,-48.8 782.43,-84.8"/>
<text text-anchor="middle" x="705" y="-62.6" font-family="Times,serif" font-size="14.00">MobileMenuComponent</text>
</g>
<!-- MobileMenuComponent&#45;&gt;LayoutModule -->
<g id="edge5" class="edge">
<title>MobileMenuComponent&#45;&gt;LayoutModule</title>
<path fill="none" stroke="black" d="M763.81,-84.91C763.81,-84.91 763.81,-103.79 763.81,-103.79"/>
<polygon fill="black" stroke="black" points="760.31,-103.79 763.81,-113.79 767.31,-103.79 760.31,-103.79"/>
</g>
<!-- NotificationsButtonComponent -->
<g id="node6" class="node">
<title>NotificationsButtonComponent</title>
<polygon fill="#ffffb3" stroke="black" points="610.04,-84.8 417.96,-84.8 417.96,-48.8 610.04,-48.8 610.04,-84.8"/>
<text text-anchor="middle" x="514" y="-62.6" font-family="Times,serif" font-size="14.00">NotificationsButtonComponent</text>
</g>
<!-- NotificationsButtonComponent&#45;&gt;LayoutModule -->
<g id="edge6" class="edge">
<title>NotificationsButtonComponent&#45;&gt;LayoutModule</title>
<path fill="none" stroke="black" d="M514,-84.83C514,-101.2 514,-122.8 514,-122.8 514,-122.8 735.09,-122.8 735.09,-122.8"/>
<polygon fill="black" stroke="black" points="735.09,-126.3 745.09,-122.8 735.09,-119.3 735.09,-126.3"/>
</g>
<!-- ProfileDropdownComponent -->
<g id="node7" class="node">
<title>ProfileDropdownComponent</title>
<polygon fill="#ffffb3" stroke="black" points="399.81,-84.8 220.19,-84.8 220.19,-48.8 399.81,-48.8 399.81,-84.8"/>
<text text-anchor="middle" x="310" y="-62.6" font-family="Times,serif" font-size="14.00">ProfileDropdownComponent</text>
</g>
<!-- ProfileDropdownComponent&#45;&gt;LayoutModule -->
<g id="edge7" class="edge">
<title>ProfileDropdownComponent&#45;&gt;LayoutModule</title>
<path fill="none" stroke="black" d="M310,-84.91C310,-104.14 310,-131.8 310,-131.8 310,-131.8 735.38,-131.8 735.38,-131.8"/>
<polygon fill="black" stroke="black" points="735.38,-135.3 745.38,-131.8 735.38,-128.3 735.38,-135.3"/>
</g>
<!-- UserMenuButtonComponent -->
<g id="node8" class="node">
<title>UserMenuButtonComponent</title>
<polygon fill="#ffffb3" stroke="black" points="202.04,-84.8 23.96,-84.8 23.96,-48.8 202.04,-48.8 202.04,-84.8"/>
<text text-anchor="middle" x="113" y="-62.6" font-family="Times,serif" font-size="14.00">UserMenuButtonComponent</text>
</g>
<!-- UserMenuButtonComponent&#45;&gt;LayoutModule -->
<g id="edge8" class="edge">
<title>UserMenuButtonComponent&#45;&gt;LayoutModule</title>
<path fill="none" stroke="black" d="M113,-85.09C113,-107.01 113,-140.8 113,-140.8 113,-140.8 735.13,-140.8 735.13,-140.8"/>
<polygon fill="black" stroke="black" points="735.13,-144.3 745.13,-140.8 735.13,-137.3 735.13,-144.3"/>
</g>
<!-- LayoutStructureComponent  -->
<g id="node10" class="node">
<title>LayoutStructureComponent </title>
<polygon fill="#fb8072" stroke="black" points="882.8,-214.8 707.2,-214.8 707.2,-178.8 882.8,-178.8 882.8,-214.8"/>
<text text-anchor="middle" x="795" y="-192.6" font-family="Times,serif" font-size="14.00">LayoutStructureComponent </text>
</g>
<!-- LayoutModule&#45;&gt;LayoutStructureComponent  -->
<g id="edge9" class="edge">
<title>LayoutModule&#45;&gt;LayoutStructureComponent </title>
<path fill="none" stroke="black" stroke-dasharray="5,2" d="M795,-149.91C795,-149.91 795,-168.79 795,-168.79"/>
<polygon fill="black" stroke="black" points="791.5,-168.79 795,-178.79 798.5,-168.79 791.5,-168.79"/>
</g>
</g>
</svg>
