<?xml version="1.0" encoding="UTF-8" standalone="no"?>
<!DOCTYPE svg PUBLIC "-//W3C//DTD SVG 1.1//EN"
 "http://www.w3.org/Graphics/SVG/1.1/DTD/svg11.dtd">
<!-- Generated by graphviz version 2.47.3 (20210619.1520)
 -->
<!-- Title: dependencies Pages: 1 -->
<svg width="551pt" height="174pt"
 viewBox="0.00 0.00 551.00 173.80" xmlns="http://www.w3.org/2000/svg" xmlns:xlink="http://www.w3.org/1999/xlink">
<g id="graph0" class="graph" transform="scale(1 1) rotate(0) translate(4 169.8)">
<title>dependencies</title>
<polygon fill="white" stroke="transparent" points="-4,4 -4,-169.8 547,-169.8 547,4 -4,4"/>
<text text-anchor="middle" x="271.5" y="-8.2" font-family="sans-serif" font-size="14.00">dependencies</text>
<g id="clust1" class="cluster">
<title>cluster_RegisterPageModule</title>
<polygon fill="none" stroke="black" stroke-dasharray="1,5" points="8,-32.8 8,-157.8 535,-157.8 535,-32.8 8,-32.8"/>
</g>
<g id="clust4" class="cluster">
<title>cluster_RegisterPageModule_imports</title>
<polygon fill="none" stroke="black" points="196,-40.8 196,-92.8 527,-92.8 527,-40.8 196,-40.8"/>
</g>
<g id="clust2" class="cluster">
<title>cluster_RegisterPageModule_declarations</title>
<polygon fill="none" stroke="black" points="16,-40.8 16,-92.8 188,-92.8 188,-40.8 16,-40.8"/>
</g>
<!-- RegisterPageComponent -->
<g id="node1" class="node">
<title>RegisterPageComponent</title>
<polygon fill="#ffffb3" stroke="black" points="179.7,-84.8 24.3,-84.8 24.3,-48.8 179.7,-48.8 179.7,-84.8"/>
<text text-anchor="middle" x="102" y="-62.6" font-family="Times,serif" font-size="14.00">RegisterPageComponent</text>
</g>
<!-- RegisterPageModule -->
<g id="node2" class="node">
<title>RegisterPageModule</title>
<polygon fill="#8dd3c7" stroke="black" points="359.91,-149.8 356.91,-153.8 335.91,-153.8 332.91,-149.8 226.09,-149.8 226.09,-113.8 359.91,-113.8 359.91,-149.8"/>
<text text-anchor="middle" x="293" y="-127.6" font-family="Times,serif" font-size="14.00">RegisterPageModule</text>
</g>
<!-- RegisterPageComponent&#45;&gt;RegisterPageModule -->
<g id="edge1" class="edge">
<title>RegisterPageComponent&#45;&gt;RegisterPageModule</title>
<path fill="none" stroke="black" d="M102,-84.91C102,-104.14 102,-131.8 102,-131.8 102,-131.8 216.2,-131.8 216.2,-131.8"/>
<polygon fill="black" stroke="black" points="216.2,-135.3 226.2,-131.8 216.2,-128.3 216.2,-135.3"/>
</g>
<!-- AppInputsModule -->
<g id="node3" class="node">
<title>AppInputsModule</title>
<polygon fill="#8dd3c7" stroke="black" points="519.15,-84.8 516.15,-88.8 495.15,-88.8 492.15,-84.8 400.85,-84.8 400.85,-48.8 519.15,-48.8 519.15,-84.8"/>
<text text-anchor="middle" x="460" y="-62.6" font-family="Times,serif" font-size="14.00">AppInputsModule</text>
</g>
<!-- AppInputsModule&#45;&gt;RegisterPageModule -->
<g id="edge2" class="edge">
<title>AppInputsModule&#45;&gt;RegisterPageModule</title>
<path fill="none" stroke="black" d="M460,-84.91C460,-104.14 460,-131.8 460,-131.8 460,-131.8 369.96,-131.8 369.96,-131.8"/>
<polygon fill="black" stroke="black" points="369.96,-128.3 359.96,-131.8 369.96,-135.3 369.96,-128.3"/>
</g>
<!-- RegisterPageRoutingModule -->
<g id="node4" class="node">
<title>RegisterPageRoutingModule</title>
<polygon fill="#8dd3c7" stroke="black" points="382.03,-84.8 379.03,-88.8 358.03,-88.8 355.03,-84.8 203.97,-84.8 203.97,-48.8 382.03,-48.8 382.03,-84.8"/>
<text text-anchor="middle" x="293" y="-62.6" font-family="Times,serif" font-size="14.00">RegisterPageRoutingModule</text>
</g>
<!-- RegisterPageRoutingModule&#45;&gt;RegisterPageModule -->
<g id="edge3" class="edge">
<title>RegisterPageRoutingModule&#45;&gt;RegisterPageModule</title>
<path fill="none" stroke="black" d="M293,-84.91C293,-84.91 293,-103.79 293,-103.79"/>
<polygon fill="black" stroke="black" points="289.5,-103.79 293,-113.79 296.5,-103.79 289.5,-103.79"/>
</g>
</g>
</svg>
