<?xml version="1.0" encoding="UTF-8" standalone="no"?>
<!DOCTYPE svg PUBLIC "-//W3C//DTD SVG 1.1//EN"
 "http://www.w3.org/Graphics/SVG/1.1/DTD/svg11.dtd">
<!-- Generated by graphviz version 2.47.3 (20210619.1520)
 -->
<!-- Title: dependencies Pages: 1 -->
<svg width="428pt" height="174pt"
 viewBox="0.00 0.00 428.00 173.80" xmlns="http://www.w3.org/2000/svg" xmlns:xlink="http://www.w3.org/1999/xlink">
<g id="graph0" class="graph" transform="scale(1 1) rotate(0) translate(4 169.8)">
<title>dependencies</title>
<polygon fill="white" stroke="transparent" points="-4,4 -4,-169.8 424,-169.8 424,4 -4,4"/>
<text text-anchor="middle" x="210" y="-8.2" font-family="sans-serif" font-size="14.00">dependencies</text>
<g id="clust1" class="cluster">
<title>cluster_MessagesPageModule</title>
<polygon fill="none" stroke="black" stroke-dasharray="1,5" points="8,-32.8 8,-157.8 412,-157.8 412,-32.8 8,-32.8"/>
</g>
<g id="clust4" class="cluster">
<title>cluster_MessagesPageModule_imports</title>
<polygon fill="none" stroke="black" points="202,-40.8 202,-92.8 404,-92.8 404,-40.8 202,-40.8"/>
</g>
<g id="clust2" class="cluster">
<title>cluster_MessagesPageModule_declarations</title>
<polygon fill="none" stroke="black" points="16,-40.8 16,-92.8 194,-92.8 194,-40.8 16,-40.8"/>
</g>
<!-- MessagesPageComponent -->
<g id="node1" class="node">
<title>MessagesPageComponent</title>
<polygon fill="#ffffb3" stroke="black" points="186.47,-84.8 23.53,-84.8 23.53,-48.8 186.47,-48.8 186.47,-84.8"/>
<text text-anchor="middle" x="105" y="-62.6" font-family="Times,serif" font-size="14.00">MessagesPageComponent</text>
</g>
<!-- MessagesPageModule -->
<g id="node2" class="node">
<title>MessagesPageModule</title>
<polygon fill="#8dd3c7" stroke="black" points="274.68,-149.8 271.68,-153.8 250.68,-153.8 247.68,-149.8 133.32,-149.8 133.32,-113.8 274.68,-113.8 274.68,-149.8"/>
<text text-anchor="middle" x="204" y="-127.6" font-family="Times,serif" font-size="14.00">MessagesPageModule</text>
</g>
<!-- MessagesPageComponent&#45;&gt;MessagesPageModule -->
<g id="edge1" class="edge">
<title>MessagesPageComponent&#45;&gt;MessagesPageModule</title>
<path fill="none" stroke="black" d="M159.95,-84.91C159.95,-84.91 159.95,-103.79 159.95,-103.79"/>
<polygon fill="black" stroke="black" points="156.45,-103.79 159.95,-113.79 163.45,-103.79 156.45,-103.79"/>
</g>
<!-- MessagesPageRoutingModule -->
<g id="node3" class="node">
<title>MessagesPageRoutingModule</title>
<polygon fill="#8dd3c7" stroke="black" points="396.3,-84.8 393.3,-88.8 372.3,-88.8 369.3,-84.8 209.7,-84.8 209.7,-48.8 396.3,-48.8 396.3,-84.8"/>
<text text-anchor="middle" x="303" y="-62.6" font-family="Times,serif" font-size="14.00">MessagesPageRoutingModule</text>
</g>
<!-- MessagesPageRoutingModule&#45;&gt;MessagesPageModule -->
<g id="edge2" class="edge">
<title>MessagesPageRoutingModule&#45;&gt;MessagesPageModule</title>
<path fill="none" stroke="black" d="M242.22,-84.91C242.22,-84.91 242.22,-103.79 242.22,-103.79"/>
<polygon fill="black" stroke="black" points="238.72,-103.79 242.22,-113.79 245.72,-103.79 238.72,-103.79"/>
</g>
</g>
</svg>
