<?xml version="1.0" encoding="UTF-8" standalone="no"?>
<!DOCTYPE svg PUBLIC "-//W3C//DTD SVG 1.1//EN"
 "http://www.w3.org/Graphics/SVG/1.1/DTD/svg11.dtd">
<!-- Generated by graphviz version 2.47.3 (20210619.1520)
 -->
<!-- Title: dependencies Pages: 1 -->
<svg width="524pt" height="174pt"
 viewBox="0.00 0.00 524.00 173.80" xmlns="http://www.w3.org/2000/svg" xmlns:xlink="http://www.w3.org/1999/xlink">
<g id="graph0" class="graph" transform="scale(1 1) rotate(0) translate(4 169.8)">
<title>dependencies</title>
<polygon fill="white" stroke="transparent" points="-4,4 -4,-169.8 520,-169.8 520,4 -4,4"/>
<text text-anchor="middle" x="258" y="-8.2" font-family="sans-serif" font-size="14.00">dependencies</text>
<g id="clust1" class="cluster">
<title>cluster_LoginPageModule</title>
<polygon fill="none" stroke="black" stroke-dasharray="1,5" points="8,-32.8 8,-157.8 508,-157.8 508,-32.8 8,-32.8"/>
</g>
<g id="clust4" class="cluster">
<title>cluster_LoginPageModule_imports</title>
<polygon fill="none" stroke="black" points="182,-40.8 182,-92.8 500,-92.8 500,-40.8 182,-40.8"/>
</g>
<g id="clust2" class="cluster">
<title>cluster_LoginPageModule_declarations</title>
<polygon fill="none" stroke="black" points="16,-40.8 16,-92.8 174,-92.8 174,-40.8 16,-40.8"/>
</g>
<!-- LoginPageComponent -->
<g id="node1" class="node">
<title>LoginPageComponent</title>
<polygon fill="#ffffb3" stroke="black" points="165.99,-84.8 24.01,-84.8 24.01,-48.8 165.99,-48.8 165.99,-84.8"/>
<text text-anchor="middle" x="95" y="-62.6" font-family="Times,serif" font-size="14.00">LoginPageComponent</text>
</g>
<!-- LoginPageModule -->
<g id="node2" class="node">
<title>LoginPageModule</title>
<polygon fill="#8dd3c7" stroke="black" points="333.2,-149.8 330.2,-153.8 309.2,-153.8 306.2,-149.8 212.8,-149.8 212.8,-113.8 333.2,-113.8 333.2,-149.8"/>
<text text-anchor="middle" x="273" y="-127.6" font-family="Times,serif" font-size="14.00">LoginPageModule</text>
</g>
<!-- LoginPageComponent&#45;&gt;LoginPageModule -->
<g id="edge1" class="edge">
<title>LoginPageComponent&#45;&gt;LoginPageModule</title>
<path fill="none" stroke="black" d="M95,-84.91C95,-104.14 95,-131.8 95,-131.8 95,-131.8 202.74,-131.8 202.74,-131.8"/>
<polygon fill="black" stroke="black" points="202.74,-135.3 212.74,-131.8 202.74,-128.3 202.74,-135.3"/>
</g>
<!-- AppInputsModule -->
<g id="node3" class="node">
<title>AppInputsModule</title>
<polygon fill="#8dd3c7" stroke="black" points="492.15,-84.8 489.15,-88.8 468.15,-88.8 465.15,-84.8 373.85,-84.8 373.85,-48.8 492.15,-48.8 492.15,-84.8"/>
<text text-anchor="middle" x="433" y="-62.6" font-family="Times,serif" font-size="14.00">AppInputsModule</text>
</g>
<!-- AppInputsModule&#45;&gt;LoginPageModule -->
<g id="edge2" class="edge">
<title>AppInputsModule&#45;&gt;LoginPageModule</title>
<path fill="none" stroke="black" d="M433,-84.91C433,-104.14 433,-131.8 433,-131.8 433,-131.8 343.49,-131.8 343.49,-131.8"/>
<polygon fill="black" stroke="black" points="343.49,-128.3 333.49,-131.8 343.49,-135.3 343.49,-128.3"/>
</g>
<!-- LoginPageRoutingModule -->
<g id="node4" class="node">
<title>LoginPageRoutingModule</title>
<polygon fill="#8dd3c7" stroke="black" points="355.82,-84.8 352.82,-88.8 331.82,-88.8 328.82,-84.8 190.18,-84.8 190.18,-48.8 355.82,-48.8 355.82,-84.8"/>
<text text-anchor="middle" x="273" y="-62.6" font-family="Times,serif" font-size="14.00">LoginPageRoutingModule</text>
</g>
<!-- LoginPageRoutingModule&#45;&gt;LoginPageModule -->
<g id="edge3" class="edge">
<title>LoginPageRoutingModule&#45;&gt;LoginPageModule</title>
<path fill="none" stroke="black" d="M273,-84.91C273,-84.91 273,-103.79 273,-103.79"/>
<polygon fill="black" stroke="black" points="269.5,-103.79 273,-113.79 276.5,-103.79 269.5,-103.79"/>
</g>
</g>
</svg>
