<?xml version="1.0" encoding="UTF-8" standalone="no"?>
<!DOCTYPE svg PUBLIC "-//W3C//DTD SVG 1.1//EN"
 "http://www.w3.org/Graphics/SVG/1.1/DTD/svg11.dtd">
<!-- Generated by graphviz version 2.47.3 (20210619.1520)
 -->
<!-- Title: dependencies Pages: 1 -->
<svg width="4976pt" height="326pt"
 viewBox="0.00 0.00 4976.00 325.80" xmlns="http://www.w3.org/2000/svg" xmlns:xlink="http://www.w3.org/1999/xlink">
<g id="graph0" class="graph" transform="scale(1 1) rotate(0) translate(4 321.8)">
<title>dependencies</title>
<polygon fill="white" stroke="transparent" points="-4,4 -4,-321.8 4972,-321.8 4972,4 -4,4"/>
<text text-anchor="middle" x="2484" y="-8.2" font-family="sans-serif" font-size="14.00">dependencies</text>
<g id="clust1" class="cluster">
<title>cluster_AppInputsModule</title>
<polygon fill="none" stroke="black" stroke-dasharray="1,5" points="8,-32.8 8,-241.8 186,-241.8 186,-32.8 8,-32.8"/>
</g>
<g id="clust2" class="cluster">
<title>cluster_AppInputsModule_declarations</title>
<polygon fill="none" stroke="black" points="20,-40.8 20,-92.8 178,-92.8 178,-40.8 20,-40.8"/>
</g>
<g id="clust5" class="cluster">
<title>cluster_AppInputsModule_exports</title>
<polygon fill="none" stroke="black" points="16,-181.8 16,-233.8 178,-233.8 178,-181.8 16,-181.8"/>
</g>
<g id="clust8" class="cluster">
<title>cluster_AppModule</title>
<polygon fill="none" stroke="black" stroke-dasharray="1,5" points="1082,-108.8 1082,-309.8 1750,-309.8 1750,-108.8 1082,-108.8"/>
</g>
<g id="clust9" class="cluster">
<title>cluster_AppModule_declarations</title>
<polygon fill="none" stroke="black" points="1620,-116.8 1620,-168.8 1742,-168.8 1742,-116.8 1620,-116.8"/>
</g>
<g id="clust11" class="cluster">
<title>cluster_AppModule_imports</title>
<polygon fill="none" stroke="black" points="1090,-116.8 1090,-168.8 1612,-168.8 1612,-116.8 1090,-116.8"/>
</g>
<g id="clust13" class="cluster">
<title>cluster_AppModule_bootstrap</title>
<polygon fill="none" stroke="black" points="1327,-249.8 1327,-301.8 1451,-301.8 1451,-249.8 1327,-249.8"/>
</g>
<g id="clust21" class="cluster">
<title>cluster_AuthorizationModule</title>
<polygon fill="none" stroke="black" stroke-dasharray="1,5" points="1935,-32.8 1935,-100.8 2113,-100.8 2113,-32.8 1935,-32.8"/>
</g>
<g id="clust26" class="cluster">
<title>cluster_AuthorizationModule_providers</title>
<polygon fill="none" stroke="black" points="1943,-40.8 1943,-92.8 2105,-92.8 2105,-40.8 1943,-40.8"/>
</g>
<g id="clust33" class="cluster">
<title>cluster_HomePageModule</title>
<polygon fill="none" stroke="black" stroke-dasharray="1,5" points="2458,-108.8 2458,-233.8 2930,-233.8 2930,-108.8 2458,-108.8"/>
</g>
<g id="clust34" class="cluster">
<title>cluster_HomePageModule_declarations</title>
<polygon fill="none" stroke="black" points="2764,-116.8 2764,-168.8 2922,-168.8 2922,-116.8 2764,-116.8"/>
</g>
<g id="clust36" class="cluster">
<title>cluster_HomePageModule_imports</title>
<polygon fill="none" stroke="black" points="2466,-116.8 2466,-168.8 2756,-168.8 2756,-116.8 2466,-116.8"/>
</g>
<g id="clust46" class="cluster">
<title>cluster_LayoutModule</title>
<polygon fill="none" stroke="black" stroke-dasharray="1,5" points="194,-32.8 194,-100.8 1927,-100.8 1927,-32.8 194,-32.8"/>
</g>
<g id="clust47" class="cluster">
<title>cluster_LayoutModule_declarations</title>
<polygon fill="none" stroke="black" points="402,-40.8 402,-92.8 1919,-92.8 1919,-40.8 402,-40.8"/>
</g>
<g id="clust57" class="cluster">
<title>cluster_LayoutModule_exports</title>
<polygon fill="none" stroke="black" points="202,-40.8 202,-92.8 394,-92.8 394,-40.8 202,-40.8"/>
</g>
<g id="clust60" class="cluster">
<title>cluster_LoginPageModule</title>
<polygon fill="none" stroke="black" stroke-dasharray="1,5" points="194,-108.8 194,-233.8 558,-233.8 558,-108.8 194,-108.8"/>
</g>
<g id="clust61" class="cluster">
<title>cluster_LoginPageModule_declarations</title>
<polygon fill="none" stroke="black" points="392,-116.8 392,-168.8 550,-168.8 550,-116.8 392,-116.8"/>
</g>
<g id="clust63" class="cluster">
<title>cluster_LoginPageModule_imports</title>
<polygon fill="none" stroke="black" points="202,-116.8 202,-168.8 384,-168.8 384,-116.8 202,-116.8"/>
</g>
<g id="clust73" class="cluster">
<title>cluster_MessagesPageModule</title>
<polygon fill="none" stroke="black" stroke-dasharray="1,5" points="2938,-32.8 2938,-168.8 3342,-168.8 3342,-32.8 2938,-32.8"/>
</g>
<g id="clust74" class="cluster">
<title>cluster_MessagesPageModule_declarations</title>
<polygon fill="none" stroke="black" points="3156,-40.8 3156,-92.8 3334,-92.8 3334,-40.8 3156,-40.8"/>
</g>
<g id="clust76" class="cluster">
<title>cluster_MessagesPageModule_imports</title>
<polygon fill="none" stroke="black" points="2946,-40.8 2946,-92.8 3148,-92.8 3148,-40.8 2946,-40.8"/>
</g>
<g id="clust86" class="cluster">
<title>cluster_NotFoundPageModule</title>
<polygon fill="none" stroke="black" stroke-dasharray="1,5" points="3350,-32.8 3350,-168.8 3760,-168.8 3760,-32.8 3350,-32.8"/>
</g>
<g id="clust87" class="cluster">
<title>cluster_NotFoundPageModule_declarations</title>
<polygon fill="none" stroke="black" points="3570,-40.8 3570,-92.8 3752,-92.8 3752,-40.8 3570,-40.8"/>
</g>
<g id="clust89" class="cluster">
<title>cluster_NotFoundPageModule_imports</title>
<polygon fill="none" stroke="black" points="3358,-40.8 3358,-92.8 3562,-92.8 3562,-40.8 3358,-40.8"/>
</g>
<g id="clust99" class="cluster">
<title>cluster_PostsModule</title>
<polygon fill="none" stroke="black" stroke-dasharray="1,5" points="2121,-32.8 2121,-100.8 2929,-100.8 2929,-32.8 2121,-32.8"/>
</g>
<g id="clust100" class="cluster">
<title>cluster_PostsModule_declarations</title>
<polygon fill="none" stroke="black" points="2447,-40.8 2447,-92.8 2921,-92.8 2921,-40.8 2447,-40.8"/>
</g>
<g id="clust105" class="cluster">
<title>cluster_PostsModule_exports</title>
<polygon fill="none" stroke="black" points="2129,-40.8 2129,-92.8 2439,-92.8 2439,-40.8 2129,-40.8"/>
</g>
<g id="clust108" class="cluster">
<title>cluster_ProfilePageModule</title>
<polygon fill="none" stroke="black" stroke-dasharray="1,5" points="3768,-32.8 3768,-168.8 4140,-168.8 4140,-32.8 3768,-32.8"/>
</g>
<g id="clust109" class="cluster">
<title>cluster_ProfilePageModule_declarations</title>
<polygon fill="none" stroke="black" points="3970,-40.8 3970,-92.8 4132,-92.8 4132,-40.8 3970,-40.8"/>
</g>
<g id="clust111" class="cluster">
<title>cluster_ProfilePageModule_imports</title>
<polygon fill="none" stroke="black" points="3776,-40.8 3776,-92.8 3962,-92.8 3962,-40.8 3776,-40.8"/>
</g>
<g id="clust121" class="cluster">
<title>cluster_RegisterPageModule</title>
<polygon fill="none" stroke="black" stroke-dasharray="1,5" points="566,-108.8 566,-233.8 956,-233.8 956,-108.8 566,-108.8"/>
</g>
<g id="clust122" class="cluster">
<title>cluster_RegisterPageModule_declarations</title>
<polygon fill="none" stroke="black" points="776,-116.8 776,-168.8 948,-168.8 948,-116.8 776,-116.8"/>
</g>
<g id="clust124" class="cluster">
<title>cluster_RegisterPageModule_imports</title>
<polygon fill="none" stroke="black" points="574,-116.8 574,-168.8 768,-168.8 768,-116.8 574,-116.8"/>
</g>
<g id="clust134" class="cluster">
<title>cluster_SavedPostsPageModule</title>
<polygon fill="none" stroke="black" stroke-dasharray="1,5" points="4148,-32.8 4148,-168.8 4566,-168.8 4566,-32.8 4148,-32.8"/>
</g>
<g id="clust135" class="cluster">
<title>cluster_SavedPostsPageModule_declarations</title>
<polygon fill="none" stroke="black" points="4376,-40.8 4376,-92.8 4558,-92.8 4558,-40.8 4376,-40.8"/>
</g>
<g id="clust137" class="cluster">
<title>cluster_SavedPostsPageModule_imports</title>
<polygon fill="none" stroke="black" points="4156,-40.8 4156,-92.8 4368,-92.8 4368,-40.8 4156,-40.8"/>
</g>
<g id="clust147" class="cluster">
<title>cluster_SettingsPageModule</title>
<polygon fill="none" stroke="black" stroke-dasharray="1,5" points="4574,-32.8 4574,-168.8 4960,-168.8 4960,-32.8 4574,-32.8"/>
</g>
<g id="clust148" class="cluster">
<title>cluster_SettingsPageModule_declarations</title>
<polygon fill="none" stroke="black" points="4782,-40.8 4782,-92.8 4952,-92.8 4952,-40.8 4782,-40.8"/>
</g>
<g id="clust150" class="cluster">
<title>cluster_SettingsPageModule_imports</title>
<polygon fill="none" stroke="black" points="4582,-40.8 4582,-92.8 4774,-92.8 4774,-40.8 4582,-40.8"/>
</g>
<!-- LabelInputComponent -->
<g id="node1" class="node">
<title>LabelInputComponent</title>
<polygon fill="#ffffb3" stroke="black" points="170.26,-84.8 27.74,-84.8 27.74,-48.8 170.26,-48.8 170.26,-84.8"/>
<text text-anchor="middle" x="99" y="-62.6" font-family="Times,serif" font-size="14.00">LabelInputComponent</text>
</g>
<!-- AppInputsModule -->
<g id="node2" class="node">
<title>AppInputsModule</title>
<polygon fill="#8dd3c7" stroke="black" points="168.15,-160.8 165.15,-164.8 144.15,-164.8 141.15,-160.8 49.85,-160.8 49.85,-124.8 168.15,-124.8 168.15,-160.8"/>
<text text-anchor="middle" x="109" y="-138.6" font-family="Times,serif" font-size="14.00">AppInputsModule</text>
</g>
<!-- LabelInputComponent&#45;&gt;AppInputsModule -->
<g id="edge1" class="edge">
<title>LabelInputComponent&#45;&gt;AppInputsModule</title>
<path fill="none" stroke="black" d="M109,-84.81C109,-84.81 109,-114.65 109,-114.65"/>
<polygon fill="black" stroke="black" points="105.5,-114.65 109,-124.65 112.5,-114.65 105.5,-114.65"/>
</g>
<!-- LabelInputComponent  -->
<g id="node3" class="node">
<title>LabelInputComponent </title>
<polygon fill="#fb8072" stroke="black" points="170.26,-225.8 23.74,-225.8 23.74,-189.8 170.26,-189.8 170.26,-225.8"/>
<text text-anchor="middle" x="97" y="-203.6" font-family="Times,serif" font-size="14.00">LabelInputComponent </text>
</g>
<!-- AppInputsModule&#45;&gt;LabelInputComponent  -->
<g id="edge2" class="edge">
<title>AppInputsModule&#45;&gt;LabelInputComponent </title>
<path fill="none" stroke="black" stroke-dasharray="5,2" d="M89.22,-160.91C89.22,-160.91 89.22,-179.79 89.22,-179.79"/>
<polygon fill="black" stroke="black" points="85.72,-179.79 89.22,-189.79 92.72,-179.79 85.72,-179.79"/>
</g>
<!-- LoginPageModule -->
<g id="node26" class="node">
<title>LoginPageModule</title>
<polygon fill="#8dd3c7" stroke="black" points="353.2,-225.8 350.2,-229.8 329.2,-229.8 326.2,-225.8 232.8,-225.8 232.8,-189.8 353.2,-189.8 353.2,-225.8"/>
<text text-anchor="middle" x="293" y="-203.6" font-family="Times,serif" font-size="14.00">LoginPageModule</text>
</g>
<!-- AppInputsModule&#45;&gt;LoginPageModule -->
<g id="edge23" class="edge">
<title>AppInputsModule&#45;&gt;LoginPageModule</title>
<path fill="none" stroke="black" d="M168.47,-142.8C180.86,-142.8 190.24,-142.8 190.24,-142.8 190.24,-142.8 190.24,-207.8 190.24,-207.8 190.24,-207.8 222.63,-207.8 222.63,-207.8"/>
<polygon fill="black" stroke="black" points="222.63,-211.3 232.63,-207.8 222.63,-204.3 222.63,-211.3"/>
</g>
<!-- RegisterPageModule -->
<g id="node43" class="node">
<title>RegisterPageModule</title>
<polygon fill="#8dd3c7" stroke="black" points="737.91,-225.8 734.91,-229.8 713.91,-229.8 710.91,-225.8 604.09,-225.8 604.09,-189.8 737.91,-189.8 737.91,-225.8"/>
<text text-anchor="middle" x="671" y="-203.6" font-family="Times,serif" font-size="14.00">RegisterPageModule</text>
</g>
<!-- AppInputsModule&#45;&gt;RegisterPageModule -->
<g id="edge37" class="edge">
<title>AppInputsModule&#45;&gt;RegisterPageModule</title>
<path fill="none" stroke="black" d="M128.78,-160.84C128.78,-168.55 128.78,-175.8 128.78,-175.8 128.78,-175.8 648.76,-175.8 648.76,-175.8 648.76,-175.8 648.76,-179.56 648.76,-179.56"/>
<polygon fill="black" stroke="black" points="645.26,-179.56 648.76,-189.56 652.26,-179.56 645.26,-179.56"/>
</g>
<!-- AppComponent -->
<g id="node4" class="node">
<title>AppComponent</title>
<polygon fill="#ffffb3" stroke="black" points="1733.94,-160.8 1628.06,-160.8 1628.06,-124.8 1733.94,-124.8 1733.94,-160.8"/>
<text text-anchor="middle" x="1681" y="-138.6" font-family="Times,serif" font-size="14.00">AppComponent</text>
</g>
<!-- AppModule -->
<g id="node5" class="node">
<title>AppModule</title>
<polygon fill="#8dd3c7" stroke="black" points="1430.66,-225.8 1427.66,-229.8 1406.66,-229.8 1403.66,-225.8 1347.34,-225.8 1347.34,-189.8 1430.66,-189.8 1430.66,-225.8"/>
<text text-anchor="middle" x="1389" y="-203.6" font-family="Times,serif" font-size="14.00">AppModule</text>
</g>
<!-- AppComponent&#45;&gt;AppModule -->
<g id="edge3" class="edge">
<title>AppComponent&#45;&gt;AppModule</title>
<path fill="none" stroke="black" d="M1681,-160.91C1681,-180.14 1681,-207.8 1681,-207.8 1681,-207.8 1440.84,-207.8 1440.84,-207.8"/>
<polygon fill="black" stroke="black" points="1440.84,-204.3 1430.84,-207.8 1440.84,-211.3 1440.84,-204.3"/>
</g>
<!-- AppComponent  -->
<g id="node10" class="node">
<title>AppComponent </title>
<polygon fill="#80b1d3" stroke="black" points="1443.44,-293.8 1334.56,-293.8 1334.56,-257.8 1443.44,-257.8 1443.44,-293.8"/>
<text text-anchor="middle" x="1389" y="-271.6" font-family="Times,serif" font-size="14.00">AppComponent </text>
</g>
<!-- AppModule&#45;&gt;AppComponent  -->
<g id="edge8" class="edge">
<title>AppModule&#45;&gt;AppComponent </title>
<path fill="none" stroke="black" stroke-dasharray="1,5" d="M1389,-226.02C1389,-226.02 1389,-247.53 1389,-247.53"/>
<polygon fill="black" stroke="black" points="1385.5,-247.53 1389,-257.53 1392.5,-247.53 1385.5,-247.53"/>
</g>
<!-- AppRoutingModule -->
<g id="node6" class="node">
<title>AppRoutingModule</title>
<polygon fill="#8dd3c7" stroke="black" points="1604.27,-160.8 1601.27,-164.8 1580.27,-164.8 1577.27,-160.8 1475.73,-160.8 1475.73,-124.8 1604.27,-124.8 1604.27,-160.8"/>
<text text-anchor="middle" x="1540" y="-138.6" font-family="Times,serif" font-size="14.00">AppRoutingModule</text>
</g>
<!-- AppRoutingModule&#45;&gt;AppModule -->
<g id="edge4" class="edge">
<title>AppRoutingModule&#45;&gt;AppModule</title>
<path fill="none" stroke="black" d="M1540,-160.83C1540,-177.2 1540,-198.8 1540,-198.8 1540,-198.8 1440.66,-198.8 1440.66,-198.8"/>
<polygon fill="black" stroke="black" points="1440.66,-195.3 1430.66,-198.8 1440.66,-202.3 1440.66,-195.3"/>
</g>
<!-- AuthorizationModule -->
<g id="node7" class="node">
<title>AuthorizationModule</title>
<polygon fill="#8dd3c7" stroke="black" points="1457.81,-160.8 1454.81,-164.8 1433.81,-164.8 1430.81,-160.8 1320.19,-160.8 1320.19,-124.8 1457.81,-124.8 1457.81,-160.8"/>
<text text-anchor="middle" x="1389" y="-138.6" font-family="Times,serif" font-size="14.00">AuthorizationModule</text>
</g>
<!-- AuthorizationModule&#45;&gt;AppModule -->
<g id="edge5" class="edge">
<title>AuthorizationModule&#45;&gt;AppModule</title>
<path fill="none" stroke="black" d="M1389,-160.91C1389,-160.91 1389,-179.79 1389,-179.79"/>
<polygon fill="black" stroke="black" points="1385.5,-179.79 1389,-189.79 1392.5,-179.79 1385.5,-179.79"/>
</g>
<!-- CoreModule -->
<g id="node8" class="node">
<title>CoreModule</title>
<polygon fill="#8dd3c7" stroke="black" points="1302.26,-160.8 1299.26,-164.8 1278.26,-164.8 1275.26,-160.8 1215.74,-160.8 1215.74,-124.8 1302.26,-124.8 1302.26,-160.8"/>
<text text-anchor="middle" x="1259" y="-138.6" font-family="Times,serif" font-size="14.00">CoreModule</text>
</g>
<!-- CoreModule&#45;&gt;AppModule -->
<g id="edge6" class="edge">
<title>CoreModule&#45;&gt;AppModule</title>
<path fill="none" stroke="black" d="M1259,-160.91C1259,-180.14 1259,-207.8 1259,-207.8 1259,-207.8 1337.15,-207.8 1337.15,-207.8"/>
<polygon fill="black" stroke="black" points="1337.15,-211.3 1347.15,-207.8 1337.15,-204.3 1337.15,-211.3"/>
</g>
<!-- LayoutModule -->
<g id="node9" class="node">
<title>LayoutModule</title>
<polygon fill="#8dd3c7" stroke="black" points="1197.71,-160.8 1194.71,-164.8 1173.71,-164.8 1170.71,-160.8 1098.29,-160.8 1098.29,-124.8 1197.71,-124.8 1197.71,-160.8"/>
<text text-anchor="middle" x="1148" y="-138.6" font-family="Times,serif" font-size="14.00">LayoutModule</text>
</g>
<!-- LayoutModule&#45;&gt;AppModule -->
<g id="edge7" class="edge">
<title>LayoutModule&#45;&gt;AppModule</title>
<path fill="none" stroke="black" d="M1148,-161.09C1148,-183.01 1148,-216.8 1148,-216.8 1148,-216.8 1337.3,-216.8 1337.3,-216.8"/>
<polygon fill="black" stroke="black" points="1337.3,-220.3 1347.3,-216.8 1337.3,-213.3 1337.3,-220.3"/>
</g>
<!-- LayoutStructureComponent  -->
<g id="node24" class="node">
<title>LayoutStructureComponent </title>
<polygon fill="#fb8072" stroke="black" points="385.8,-84.8 210.2,-84.8 210.2,-48.8 385.8,-48.8 385.8,-84.8"/>
<text text-anchor="middle" x="298" y="-62.6" font-family="Times,serif" font-size="14.00">LayoutStructureComponent </text>
</g>
<!-- LayoutModule&#45;&gt;LayoutStructureComponent  -->
<g id="edge21" class="edge">
<title>LayoutModule&#45;&gt;LayoutStructureComponent </title>
<path fill="none" stroke="black" stroke-dasharray="5,2" d="M1105.58,-124.62C1105.58,-111.76 1105.58,-96.8 1105.58,-96.8 1105.58,-96.8 380.78,-96.8 380.78,-96.8 380.78,-96.8 380.78,-94.94 380.78,-94.94"/>
<polygon fill="black" stroke="black" points="384.28,-94.94 380.78,-84.94 377.28,-94.94 384.28,-94.94"/>
</g>
<!-- AuthInterceptor -->
<g id="node11" class="node">
<title>AuthInterceptor</title>
<ellipse fill="#fdb462" stroke="black" cx="2024" cy="-66.8" rx="72.91" ry="18"/>
<text text-anchor="middle" x="2024" y="-62.6" font-family="Times,serif" font-size="14.00">AuthInterceptor</text>
</g>
<!-- AuthInterceptor&#45;&gt;AuthorizationModule -->
<g id="edge9" class="edge">
<title>AuthInterceptor&#45;&gt;AuthorizationModule</title>
<path fill="none" stroke="black" d="M2024,-84.98C2024,-97.84 2024,-112.8 2024,-112.8 2024,-112.8 1421.55,-112.8 1421.55,-112.8 1421.55,-112.8 1421.55,-114.66 1421.55,-114.66"/>
<polygon fill="black" stroke="black" points="1418.05,-114.66 1421.55,-124.66 1425.05,-114.66 1418.05,-114.66"/>
</g>
<!-- HomePageComponent -->
<g id="node12" class="node">
<title>HomePageComponent</title>
<polygon fill="#ffffb3" stroke="black" points="2914.26,-160.8 2771.74,-160.8 2771.74,-124.8 2914.26,-124.8 2914.26,-160.8"/>
<text text-anchor="middle" x="2843" y="-138.6" font-family="Times,serif" font-size="14.00">HomePageComponent</text>
</g>
<!-- HomePageModule -->
<g id="node13" class="node">
<title>HomePageModule</title>
<polygon fill="#8dd3c7" stroke="black" points="2725.47,-225.8 2722.47,-229.8 2701.47,-229.8 2698.47,-225.8 2604.53,-225.8 2604.53,-189.8 2725.47,-189.8 2725.47,-225.8"/>
<text text-anchor="middle" x="2665" y="-203.6" font-family="Times,serif" font-size="14.00">HomePageModule</text>
</g>
<!-- HomePageComponent&#45;&gt;HomePageModule -->
<g id="edge10" class="edge">
<title>HomePageComponent&#45;&gt;HomePageModule</title>
<path fill="none" stroke="black" d="M2843,-160.91C2843,-180.14 2843,-207.8 2843,-207.8 2843,-207.8 2735.76,-207.8 2735.76,-207.8"/>
<polygon fill="black" stroke="black" points="2735.76,-204.3 2725.76,-207.8 2735.76,-211.3 2735.76,-204.3"/>
</g>
<!-- HomePageRoutingModule -->
<g id="node14" class="node">
<title>HomePageRoutingModule</title>
<polygon fill="#8dd3c7" stroke="black" points="2748.09,-160.8 2745.09,-164.8 2724.09,-164.8 2721.09,-160.8 2581.91,-160.8 2581.91,-124.8 2748.09,-124.8 2748.09,-160.8"/>
<text text-anchor="middle" x="2665" y="-138.6" font-family="Times,serif" font-size="14.00">HomePageRoutingModule</text>
</g>
<!-- HomePageRoutingModule&#45;&gt;HomePageModule -->
<g id="edge11" class="edge">
<title>HomePageRoutingModule&#45;&gt;HomePageModule</title>
<path fill="none" stroke="black" d="M2665,-160.91C2665,-160.91 2665,-179.79 2665,-179.79"/>
<polygon fill="black" stroke="black" points="2661.5,-179.79 2665,-189.79 2668.5,-179.79 2661.5,-179.79"/>
</g>
<!-- PostsModule -->
<g id="node15" class="node">
<title>PostsModule</title>
<polygon fill="#8dd3c7" stroke="black" points="2563.61,-160.8 2560.61,-164.8 2539.61,-164.8 2536.61,-160.8 2474.39,-160.8 2474.39,-124.8 2563.61,-124.8 2563.61,-160.8"/>
<text text-anchor="middle" x="2519" y="-138.6" font-family="Times,serif" font-size="14.00">PostsModule</text>
</g>
<!-- PostsModule&#45;&gt;HomePageModule -->
<g id="edge12" class="edge">
<title>PostsModule&#45;&gt;HomePageModule</title>
<path fill="none" stroke="black" d="M2519,-161.09C2519,-183.01 2519,-216.8 2519,-216.8 2519,-216.8 2594.35,-216.8 2594.35,-216.8"/>
<polygon fill="black" stroke="black" points="2594.35,-220.3 2604.35,-216.8 2594.35,-213.3 2594.35,-220.3"/>
</g>
<!-- PostCreateComponent  -->
<g id="node37" class="node">
<title>PostCreateComponent </title>
<polygon fill="#fb8072" stroke="black" points="2430.98,-84.8 2285.02,-84.8 2285.02,-48.8 2430.98,-48.8 2430.98,-84.8"/>
<text text-anchor="middle" x="2358" y="-62.6" font-family="Times,serif" font-size="14.00">PostCreateComponent </text>
</g>
<!-- PostsModule&#45;&gt;PostCreateComponent  -->
<g id="edge32" class="edge">
<title>PostsModule&#45;&gt;PostCreateComponent </title>
<path fill="none" stroke="black" stroke-dasharray="5,2" d="M2474.15,-136.8C2426.51,-136.8 2358,-136.8 2358,-136.8 2358,-136.8 2358,-94.83 2358,-94.83"/>
<polygon fill="black" stroke="black" points="2361.5,-94.83 2358,-84.83 2354.5,-94.83 2361.5,-94.83"/>
</g>
<!-- PostListComponent  -->
<g id="node38" class="node">
<title>PostListComponent </title>
<polygon fill="#fb8072" stroke="black" points="2267.23,-84.8 2136.77,-84.8 2136.77,-48.8 2267.23,-48.8 2267.23,-84.8"/>
<text text-anchor="middle" x="2202" y="-62.6" font-family="Times,serif" font-size="14.00">PostListComponent </text>
</g>
<!-- PostsModule&#45;&gt;PostListComponent  -->
<g id="edge33" class="edge">
<title>PostsModule&#45;&gt;PostListComponent </title>
<path fill="none" stroke="black" stroke-dasharray="5,2" d="M2474.25,-148.8C2386.87,-148.8 2202,-148.8 2202,-148.8 2202,-148.8 2202,-95 2202,-95"/>
<polygon fill="black" stroke="black" points="2205.5,-95 2202,-85 2198.5,-95 2205.5,-95"/>
</g>
<!-- DesktopMenuComponent -->
<g id="node16" class="node">
<title>DesktopMenuComponent</title>
<polygon fill="#ffffb3" stroke="black" points="1134.15,-84.8 973.85,-84.8 973.85,-48.8 1134.15,-48.8 1134.15,-84.8"/>
<text text-anchor="middle" x="1054" y="-62.6" font-family="Times,serif" font-size="14.00">DesktopMenuComponent</text>
</g>
<!-- DesktopMenuComponent&#45;&gt;LayoutModule -->
<g id="edge13" class="edge">
<title>DesktopMenuComponent&#45;&gt;LayoutModule</title>
<path fill="none" stroke="black" d="M1127.14,-84.81C1127.14,-84.81 1127.14,-114.65 1127.14,-114.65"/>
<polygon fill="black" stroke="black" points="1123.64,-114.65 1127.14,-124.65 1130.64,-114.65 1123.64,-114.65"/>
</g>
<!-- HamburgerMenuButtonComponent -->
<g id="node17" class="node">
<title>HamburgerMenuButtonComponent</title>
<polygon fill="#ffffb3" stroke="black" points="955.86,-84.8 740.14,-84.8 740.14,-48.8 955.86,-48.8 955.86,-84.8"/>
<text text-anchor="middle" x="848" y="-62.6" font-family="Times,serif" font-size="14.00">HamburgerMenuButtonComponent</text>
</g>
<!-- HamburgerMenuButtonComponent&#45;&gt;LayoutModule -->
<g id="edge14" class="edge">
<title>HamburgerMenuButtonComponent&#45;&gt;LayoutModule</title>
<path fill="none" stroke="black" d="M947.76,-84.81C947.76,-107.29 947.76,-142.8 947.76,-142.8 947.76,-142.8 1088.25,-142.8 1088.25,-142.8"/>
<polygon fill="black" stroke="black" points="1088.25,-146.3 1098.25,-142.8 1088.25,-139.3 1088.25,-146.3"/>
</g>
<!-- HeaderComponent -->
<g id="node18" class="node">
<title>HeaderComponent</title>
<polygon fill="#ffffb3" stroke="black" points="721.74,-84.8 600.26,-84.8 600.26,-48.8 721.74,-48.8 721.74,-84.8"/>
<text text-anchor="middle" x="661" y="-62.6" font-family="Times,serif" font-size="14.00">HeaderComponent</text>
</g>
<!-- HeaderComponent&#45;&gt;LayoutModule -->
<g id="edge15" class="edge">
<title>HeaderComponent&#45;&gt;LayoutModule</title>
<path fill="none" stroke="black" d="M661,-84.97C661,-87.25 661,-88.8 661,-88.8 661,-88.8 1119.95,-88.8 1119.95,-88.8 1119.95,-88.8 1119.95,-114.52 1119.95,-114.52"/>
<polygon fill="black" stroke="black" points="1116.45,-114.52 1119.95,-124.52 1123.45,-114.52 1116.45,-114.52"/>
</g>
<!-- LayoutStructureComponent -->
<g id="node19" class="node">
<title>LayoutStructureComponent</title>
<polygon fill="#ffffb3" stroke="black" points="582.3,-84.8 409.7,-84.8 409.7,-48.8 582.3,-48.8 582.3,-84.8"/>
<text text-anchor="middle" x="496" y="-62.6" font-family="Times,serif" font-size="14.00">LayoutStructureComponent</text>
</g>
<!-- LayoutStructureComponent&#45;&gt;LayoutModule -->
<g id="edge16" class="edge">
<title>LayoutStructureComponent&#45;&gt;LayoutModule</title>
<path fill="none" stroke="black" d="M561.86,-84.86C561.86,-89.29 561.86,-92.8 561.86,-92.8 561.86,-92.8 1112.77,-92.8 1112.77,-92.8 1112.77,-92.8 1112.77,-114.75 1112.77,-114.75"/>
<polygon fill="black" stroke="black" points="1109.27,-114.75 1112.77,-124.75 1116.27,-114.75 1109.27,-114.75"/>
</g>
<!-- MobileMenuComponent -->
<g id="node20" class="node">
<title>MobileMenuComponent</title>
<polygon fill="#ffffb3" stroke="black" points="1911.43,-84.8 1756.57,-84.8 1756.57,-48.8 1911.43,-48.8 1911.43,-84.8"/>
<text text-anchor="middle" x="1834" y="-62.6" font-family="Times,serif" font-size="14.00">MobileMenuComponent</text>
</g>
<!-- MobileMenuComponent&#45;&gt;LayoutModule -->
<g id="edge17" class="edge">
<title>MobileMenuComponent&#45;&gt;LayoutModule</title>
<path fill="none" stroke="black" d="M1834,-84.86C1834,-96.24 1834,-108.8 1834,-108.8 1834,-108.8 1188.63,-108.8 1188.63,-108.8 1188.63,-108.8 1188.63,-114.61 1188.63,-114.61"/>
<polygon fill="black" stroke="black" points="1185.13,-114.61 1188.63,-124.61 1192.13,-114.61 1185.13,-114.61"/>
</g>
<!-- NotificationsButtonComponent -->
<g id="node21" class="node">
<title>NotificationsButtonComponent</title>
<polygon fill="#ffffb3" stroke="black" points="1739.04,-84.8 1546.96,-84.8 1546.96,-48.8 1739.04,-48.8 1739.04,-84.8"/>
<text text-anchor="middle" x="1643" y="-62.6" font-family="Times,serif" font-size="14.00">NotificationsButtonComponent</text>
</g>
<!-- NotificationsButtonComponent&#45;&gt;LayoutModule -->
<g id="edge18" class="edge">
<title>NotificationsButtonComponent&#45;&gt;LayoutModule</title>
<path fill="none" stroke="black" d="M1575.56,-84.91C1575.56,-94.7 1575.56,-104.8 1575.56,-104.8 1575.56,-104.8 1179.66,-104.8 1179.66,-104.8 1179.66,-104.8 1179.66,-114.69 1179.66,-114.69"/>
<polygon fill="black" stroke="black" points="1176.16,-114.69 1179.66,-124.69 1183.16,-114.69 1176.16,-114.69"/>
</g>
<!-- ProfileDropdownComponent -->
<g id="node22" class="node">
<title>ProfileDropdownComponent</title>
<polygon fill="#ffffb3" stroke="black" points="1528.81,-84.8 1349.19,-84.8 1349.19,-48.8 1528.81,-48.8 1528.81,-84.8"/>
<text text-anchor="middle" x="1439" y="-62.6" font-family="Times,serif" font-size="14.00">ProfileDropdownComponent</text>
</g>
<!-- ProfileDropdownComponent&#45;&gt;LayoutModule -->
<g id="edge19" class="edge">
<title>ProfileDropdownComponent&#45;&gt;LayoutModule</title>
<path fill="none" stroke="black" d="M1385.45,-84.99C1385.45,-93.08 1385.45,-100.8 1385.45,-100.8 1385.45,-100.8 1170.68,-100.8 1170.68,-100.8 1170.68,-100.8 1170.68,-114.74 1170.68,-114.74"/>
<polygon fill="black" stroke="black" points="1167.18,-114.74 1170.68,-124.74 1174.18,-114.74 1167.18,-114.74"/>
</g>
<!-- UserMenuButtonComponent -->
<g id="node23" class="node">
<title>UserMenuButtonComponent</title>
<polygon fill="#ffffb3" stroke="black" points="1331.04,-84.8 1152.96,-84.8 1152.96,-48.8 1331.04,-48.8 1331.04,-84.8"/>
<text text-anchor="middle" x="1242" y="-62.6" font-family="Times,serif" font-size="14.00">UserMenuButtonComponent</text>
</g>
<!-- UserMenuButtonComponent&#45;&gt;LayoutModule -->
<g id="edge20" class="edge">
<title>UserMenuButtonComponent&#45;&gt;LayoutModule</title>
<path fill="none" stroke="black" d="M1161.71,-84.81C1161.71,-84.81 1161.71,-114.65 1161.71,-114.65"/>
<polygon fill="black" stroke="black" points="1158.21,-114.65 1161.71,-124.65 1165.21,-114.65 1158.21,-114.65"/>
</g>
<!-- LoginPageComponent -->
<g id="node25" class="node">
<title>LoginPageComponent</title>
<polygon fill="#ffffb3" stroke="black" points="541.99,-160.8 400.01,-160.8 400.01,-124.8 541.99,-124.8 541.99,-160.8"/>
<text text-anchor="middle" x="471" y="-138.6" font-family="Times,serif" font-size="14.00">LoginPageComponent</text>
</g>
<!-- LoginPageComponent&#45;&gt;LoginPageModule -->
<g id="edge22" class="edge">
<title>LoginPageComponent&#45;&gt;LoginPageModule</title>
<path fill="none" stroke="black" d="M471,-160.91C471,-180.14 471,-207.8 471,-207.8 471,-207.8 363.26,-207.8 363.26,-207.8"/>
<polygon fill="black" stroke="black" points="363.26,-204.3 353.26,-207.8 363.26,-211.3 363.26,-204.3"/>
</g>
<!-- LoginPageRoutingModule -->
<g id="node27" class="node">
<title>LoginPageRoutingModule</title>
<polygon fill="#8dd3c7" stroke="black" points="375.82,-160.8 372.82,-164.8 351.82,-164.8 348.82,-160.8 210.18,-160.8 210.18,-124.8 375.82,-124.8 375.82,-160.8"/>
<text text-anchor="middle" x="293" y="-138.6" font-family="Times,serif" font-size="14.00">LoginPageRoutingModule</text>
</g>
<!-- LoginPageRoutingModule&#45;&gt;LoginPageModule -->
<g id="edge24" class="edge">
<title>LoginPageRoutingModule&#45;&gt;LoginPageModule</title>
<path fill="none" stroke="black" d="M293,-160.91C293,-160.91 293,-179.79 293,-179.79"/>
<polygon fill="black" stroke="black" points="289.5,-179.79 293,-189.79 296.5,-179.79 289.5,-179.79"/>
</g>
<!-- MessagesPageComponent -->
<g id="node28" class="node">
<title>MessagesPageComponent</title>
<polygon fill="#ffffb3" stroke="black" points="3326.47,-84.8 3163.53,-84.8 3163.53,-48.8 3326.47,-48.8 3326.47,-84.8"/>
<text text-anchor="middle" x="3245" y="-62.6" font-family="Times,serif" font-size="14.00">MessagesPageComponent</text>
</g>
<!-- MessagesPageModule -->
<g id="node29" class="node">
<title>MessagesPageModule</title>
<polygon fill="#8dd3c7" stroke="black" points="3216.68,-160.8 3213.68,-164.8 3192.68,-164.8 3189.68,-160.8 3075.32,-160.8 3075.32,-124.8 3216.68,-124.8 3216.68,-160.8"/>
<text text-anchor="middle" x="3146" y="-138.6" font-family="Times,serif" font-size="14.00">MessagesPageModule</text>
</g>
<!-- MessagesPageComponent&#45;&gt;MessagesPageModule -->
<g id="edge25" class="edge">
<title>MessagesPageComponent&#45;&gt;MessagesPageModule</title>
<path fill="none" stroke="black" d="M3190.05,-84.81C3190.05,-84.81 3190.05,-114.65 3190.05,-114.65"/>
<polygon fill="black" stroke="black" points="3186.55,-114.65 3190.05,-124.65 3193.55,-114.65 3186.55,-114.65"/>
</g>
<!-- MessagesPageRoutingModule -->
<g id="node30" class="node">
<title>MessagesPageRoutingModule</title>
<polygon fill="#8dd3c7" stroke="black" points="3140.3,-84.8 3137.3,-88.8 3116.3,-88.8 3113.3,-84.8 2953.7,-84.8 2953.7,-48.8 3140.3,-48.8 3140.3,-84.8"/>
<text text-anchor="middle" x="3047" y="-62.6" font-family="Times,serif" font-size="14.00">MessagesPageRoutingModule</text>
</g>
<!-- MessagesPageRoutingModule&#45;&gt;MessagesPageModule -->
<g id="edge26" class="edge">
<title>MessagesPageRoutingModule&#45;&gt;MessagesPageModule</title>
<path fill="none" stroke="black" d="M3107.78,-84.81C3107.78,-84.81 3107.78,-114.65 3107.78,-114.65"/>
<polygon fill="black" stroke="black" points="3104.28,-114.65 3107.78,-124.65 3111.28,-114.65 3104.28,-114.65"/>
</g>
<!-- NotFoundPageComponent -->
<g id="node31" class="node">
<title>NotFoundPageComponent</title>
<polygon fill="#ffffb3" stroke="black" points="3743.82,-84.8 3578.18,-84.8 3578.18,-48.8 3743.82,-48.8 3743.82,-84.8"/>
<text text-anchor="middle" x="3661" y="-62.6" font-family="Times,serif" font-size="14.00">NotFoundPageComponent</text>
</g>
<!-- NotFoundPageModule -->
<g id="node32" class="node">
<title>NotFoundPageModule</title>
<polygon fill="#8dd3c7" stroke="black" points="3631.54,-160.8 3628.54,-164.8 3607.54,-164.8 3604.54,-160.8 3488.46,-160.8 3488.46,-124.8 3631.54,-124.8 3631.54,-160.8"/>
<text text-anchor="middle" x="3560" y="-138.6" font-family="Times,serif" font-size="14.00">NotFoundPageModule</text>
</g>
<!-- NotFoundPageComponent&#45;&gt;NotFoundPageModule -->
<g id="edge27" class="edge">
<title>NotFoundPageComponent&#45;&gt;NotFoundPageModule</title>
<path fill="none" stroke="black" d="M3605.05,-84.81C3605.05,-84.81 3605.05,-114.65 3605.05,-114.65"/>
<polygon fill="black" stroke="black" points="3601.55,-114.65 3605.05,-124.65 3608.55,-114.65 3601.55,-114.65"/>
</g>
<!-- NotFoundPageRoutingModule -->
<g id="node33" class="node">
<title>NotFoundPageRoutingModule</title>
<polygon fill="#8dd3c7" stroke="black" points="3554.16,-84.8 3551.16,-88.8 3530.16,-88.8 3527.16,-84.8 3365.84,-84.8 3365.84,-48.8 3554.16,-48.8 3554.16,-84.8"/>
<text text-anchor="middle" x="3460" y="-62.6" font-family="Times,serif" font-size="14.00">NotFoundPageRoutingModule</text>
</g>
<!-- NotFoundPageRoutingModule&#45;&gt;NotFoundPageModule -->
<g id="edge28" class="edge">
<title>NotFoundPageRoutingModule&#45;&gt;NotFoundPageModule</title>
<path fill="none" stroke="black" d="M3521.28,-84.81C3521.28,-84.81 3521.28,-114.65 3521.28,-114.65"/>
<polygon fill="black" stroke="black" points="3517.78,-114.65 3521.28,-124.65 3524.78,-114.65 3517.78,-114.65"/>
</g>
<!-- PostCreateComponent -->
<g id="node34" class="node">
<title>PostCreateComponent</title>
<polygon fill="#ffffb3" stroke="black" points="2742.98,-84.8 2601.02,-84.8 2601.02,-48.8 2742.98,-48.8 2742.98,-84.8"/>
<text text-anchor="middle" x="2672" y="-62.6" font-family="Times,serif" font-size="14.00">PostCreateComponent</text>
</g>
<!-- PostCreateComponent&#45;&gt;PostsModule -->
<g id="edge29" class="edge">
<title>PostCreateComponent&#45;&gt;PostsModule</title>
<path fill="none" stroke="black" d="M2672,-84.85C2672,-99.17 2672,-116.8 2672,-116.8 2672,-116.8 2519,-116.8 2519,-116.8 2519,-116.8 2519,-117.59 2519,-117.59"/>
<polygon fill="black" stroke="black" points="2515.5,-114.74 2519,-124.74 2522.5,-114.74 2515.5,-114.74"/>
</g>
<!-- PostListComponent -->
<g id="node35" class="node">
<title>PostListComponent</title>
<polygon fill="#ffffb3" stroke="black" points="2582.73,-84.8 2455.27,-84.8 2455.27,-48.8 2582.73,-48.8 2582.73,-84.8"/>
<text text-anchor="middle" x="2519" y="-62.6" font-family="Times,serif" font-size="14.00">PostListComponent</text>
</g>
<!-- PostListComponent&#45;&gt;PostsModule -->
<g id="edge30" class="edge">
<title>PostListComponent&#45;&gt;PostsModule</title>
<path fill="none" stroke="black" d="M2496.72,-84.81C2496.72,-84.81 2496.72,-114.65 2496.72,-114.65"/>
<polygon fill="black" stroke="black" points="2493.22,-114.65 2496.72,-124.65 2500.22,-114.65 2493.22,-114.65"/>
</g>
<!-- PostListItemComponent -->
<g id="node36" class="node">
<title>PostListItemComponent</title>
<polygon fill="#ffffb3" stroke="black" points="2913.39,-84.8 2760.61,-84.8 2760.61,-48.8 2913.39,-48.8 2913.39,-84.8"/>
<text text-anchor="middle" x="2837" y="-62.6" font-family="Times,serif" font-size="14.00">PostListItemComponent</text>
</g>
<!-- PostListItemComponent&#45;&gt;PostsModule -->
<g id="edge31" class="edge">
<title>PostListItemComponent&#45;&gt;PostsModule</title>
<path fill="none" stroke="black" d="M2766.09,-85.08C2766.09,-100.75 2766.09,-120.8 2766.09,-120.8 2766.09,-120.8 2541.28,-120.8 2541.28,-120.8 2541.28,-120.8 2541.28,-121.18 2541.28,-121.18"/>
<polygon fill="black" stroke="black" points="2537.78,-114.63 2541.28,-124.63 2544.78,-114.63 2537.78,-114.63"/>
</g>
<!-- ProfilePageComponent -->
<g id="node39" class="node">
<title>ProfilePageComponent</title>
<polygon fill="#ffffb3" stroke="black" points="4124.14,-84.8 3977.86,-84.8 3977.86,-48.8 4124.14,-48.8 4124.14,-84.8"/>
<text text-anchor="middle" x="4051" y="-62.6" font-family="Times,serif" font-size="14.00">ProfilePageComponent</text>
</g>
<!-- ProfilePageModule -->
<g id="node40" class="node">
<title>ProfilePageModule</title>
<polygon fill="#8dd3c7" stroke="black" points="4022.36,-160.8 4019.36,-164.8 3998.36,-164.8 3995.36,-160.8 3897.64,-160.8 3897.64,-124.8 4022.36,-124.8 4022.36,-160.8"/>
<text text-anchor="middle" x="3960" y="-138.6" font-family="Times,serif" font-size="14.00">ProfilePageModule</text>
</g>
<!-- ProfilePageComponent&#45;&gt;ProfilePageModule -->
<g id="edge34" class="edge">
<title>ProfilePageComponent&#45;&gt;ProfilePageModule</title>
<path fill="none" stroke="black" d="M4000.05,-84.81C4000.05,-84.81 4000.05,-114.65 4000.05,-114.65"/>
<polygon fill="black" stroke="black" points="3996.55,-114.65 4000.05,-124.65 4003.55,-114.65 3996.55,-114.65"/>
</g>
<!-- ProfilePageRoutingModule -->
<g id="node41" class="node">
<title>ProfilePageRoutingModule</title>
<polygon fill="#8dd3c7" stroke="black" points="3953.98,-84.8 3950.98,-88.8 3929.98,-88.8 3926.98,-84.8 3784.02,-84.8 3784.02,-48.8 3953.98,-48.8 3953.98,-84.8"/>
<text text-anchor="middle" x="3869" y="-62.6" font-family="Times,serif" font-size="14.00">ProfilePageRoutingModule</text>
</g>
<!-- ProfilePageRoutingModule&#45;&gt;ProfilePageModule -->
<g id="edge35" class="edge">
<title>ProfilePageRoutingModule&#45;&gt;ProfilePageModule</title>
<path fill="none" stroke="black" d="M3925.78,-84.81C3925.78,-84.81 3925.78,-114.65 3925.78,-114.65"/>
<polygon fill="black" stroke="black" points="3922.28,-114.65 3925.78,-124.65 3929.28,-114.65 3922.28,-114.65"/>
</g>
<!-- RegisterPageComponent -->
<g id="node42" class="node">
<title>RegisterPageComponent</title>
<polygon fill="#ffffb3" stroke="black" points="939.7,-160.8 784.3,-160.8 784.3,-124.8 939.7,-124.8 939.7,-160.8"/>
<text text-anchor="middle" x="862" y="-138.6" font-family="Times,serif" font-size="14.00">RegisterPageComponent</text>
</g>
<!-- RegisterPageComponent&#45;&gt;RegisterPageModule -->
<g id="edge36" class="edge">
<title>RegisterPageComponent&#45;&gt;RegisterPageModule</title>
<path fill="none" stroke="black" d="M862,-160.83C862,-177.2 862,-198.8 862,-198.8 862,-198.8 747.8,-198.8 747.8,-198.8"/>
<polygon fill="black" stroke="black" points="747.8,-195.3 737.8,-198.8 747.8,-202.3 747.8,-195.3"/>
</g>
<!-- RegisterPageRoutingModule -->
<g id="node44" class="node">
<title>RegisterPageRoutingModule</title>
<polygon fill="#8dd3c7" stroke="black" points="760.03,-160.8 757.03,-164.8 736.03,-164.8 733.03,-160.8 581.97,-160.8 581.97,-124.8 760.03,-124.8 760.03,-160.8"/>
<text text-anchor="middle" x="671" y="-138.6" font-family="Times,serif" font-size="14.00">RegisterPageRoutingModule</text>
</g>
<!-- RegisterPageRoutingModule&#45;&gt;RegisterPageModule -->
<g id="edge38" class="edge">
<title>RegisterPageRoutingModule&#45;&gt;RegisterPageModule</title>
<path fill="none" stroke="black" d="M693.24,-160.91C693.24,-160.91 693.24,-179.79 693.24,-179.79"/>
<polygon fill="black" stroke="black" points="689.74,-179.79 693.24,-189.79 696.74,-179.79 689.74,-179.79"/>
</g>
<!-- SavedPostPageComponent -->
<g id="node45" class="node">
<title>SavedPostPageComponent</title>
<polygon fill="#ffffb3" stroke="black" points="4550.37,-84.8 4383.63,-84.8 4383.63,-48.8 4550.37,-48.8 4550.37,-84.8"/>
<text text-anchor="middle" x="4467" y="-62.6" font-family="Times,serif" font-size="14.00">SavedPostPageComponent</text>
</g>
<!-- SavedPostsPageModule -->
<g id="node46" class="node">
<title>SavedPostsPageModule</title>
<polygon fill="#8dd3c7" stroke="black" points="4439.04,-160.8 4436.04,-164.8 4415.04,-164.8 4412.04,-160.8 4288.96,-160.8 4288.96,-124.8 4439.04,-124.8 4439.04,-160.8"/>
<text text-anchor="middle" x="4364" y="-138.6" font-family="Times,serif" font-size="14.00">SavedPostsPageModule</text>
</g>
<!-- SavedPostPageComponent&#45;&gt;SavedPostsPageModule -->
<g id="edge39" class="edge">
<title>SavedPostPageComponent&#45;&gt;SavedPostsPageModule</title>
<path fill="none" stroke="black" d="M4411.42,-84.81C4411.42,-84.81 4411.42,-114.65 4411.42,-114.65"/>
<polygon fill="black" stroke="black" points="4407.92,-114.65 4411.42,-124.65 4414.92,-114.65 4407.92,-114.65"/>
</g>
<!-- SavedPostsPageRoutingModule -->
<g id="node47" class="node">
<title>SavedPostsPageRoutingModule</title>
<polygon fill="#8dd3c7" stroke="black" points="4359.65,-84.8 4356.65,-88.8 4335.65,-88.8 4332.65,-84.8 4164.35,-84.8 4164.35,-48.8 4359.65,-48.8 4359.65,-84.8"/>
<text text-anchor="middle" x="4262" y="-62.6" font-family="Times,serif" font-size="14.00">SavedPostsPageRoutingModule</text>
</g>
<!-- SavedPostsPageRoutingModule&#45;&gt;SavedPostsPageModule -->
<g id="edge40" class="edge">
<title>SavedPostsPageRoutingModule&#45;&gt;SavedPostsPageModule</title>
<path fill="none" stroke="black" d="M4324.28,-84.81C4324.28,-84.81 4324.28,-114.65 4324.28,-114.65"/>
<polygon fill="black" stroke="black" points="4320.78,-114.65 4324.28,-124.65 4327.78,-114.65 4320.78,-114.65"/>
</g>
<!-- SettingsPageComponent -->
<g id="node48" class="node">
<title>SettingsPageComponent</title>
<polygon fill="#ffffb3" stroke="black" points="4943.66,-84.8 4790.34,-84.8 4790.34,-48.8 4943.66,-48.8 4943.66,-84.8"/>
<text text-anchor="middle" x="4867" y="-62.6" font-family="Times,serif" font-size="14.00">SettingsPageComponent</text>
</g>
<!-- SettingsPageModule -->
<g id="node49" class="node">
<title>SettingsPageModule</title>
<polygon fill="#8dd3c7" stroke="black" points="4837.88,-160.8 4834.88,-164.8 4813.88,-164.8 4810.88,-160.8 4706.12,-160.8 4706.12,-124.8 4837.88,-124.8 4837.88,-160.8"/>
<text text-anchor="middle" x="4772" y="-138.6" font-family="Times,serif" font-size="14.00">SettingsPageModule</text>
</g>
<!-- SettingsPageComponent&#45;&gt;SettingsPageModule -->
<g id="edge41" class="edge">
<title>SettingsPageComponent&#45;&gt;SettingsPageModule</title>
<path fill="none" stroke="black" d="M4814.05,-84.81C4814.05,-84.81 4814.05,-114.65 4814.05,-114.65"/>
<polygon fill="black" stroke="black" points="4810.55,-114.65 4814.05,-124.65 4817.55,-114.65 4810.55,-114.65"/>
</g>
<!-- SettingsPageRoutingModule -->
<g id="node50" class="node">
<title>SettingsPageRoutingModule</title>
<polygon fill="#8dd3c7" stroke="black" points="4766.49,-84.8 4763.49,-88.8 4742.49,-88.8 4739.49,-84.8 4589.51,-84.8 4589.51,-48.8 4766.49,-48.8 4766.49,-84.8"/>
<text text-anchor="middle" x="4678" y="-62.6" font-family="Times,serif" font-size="14.00">SettingsPageRoutingModule</text>
</g>
<!-- SettingsPageRoutingModule&#45;&gt;SettingsPageModule -->
<g id="edge42" class="edge">
<title>SettingsPageRoutingModule&#45;&gt;SettingsPageModule</title>
<path fill="none" stroke="black" d="M4736.28,-84.81C4736.28,-84.81 4736.28,-114.65 4736.28,-114.65"/>
<polygon fill="black" stroke="black" points="4732.78,-114.65 4736.28,-124.65 4739.78,-114.65 4732.78,-114.65"/>
</g>
</g>
</svg>
