<?xml version="1.0" encoding="UTF-8" standalone="no"?>
<!DOCTYPE svg PUBLIC "-//W3C//DTD SVG 1.1//EN"
 "http://www.w3.org/Graphics/SVG/1.1/DTD/svg11.dtd">
<!-- Generated by graphviz version 2.47.3 (20210619.1520)
 -->
<!-- Title: dependencies Pages: 1 -->
<svg width="442pt" height="174pt"
 viewBox="0.00 0.00 442.00 173.80" xmlns="http://www.w3.org/2000/svg" xmlns:xlink="http://www.w3.org/1999/xlink">
<g id="graph0" class="graph" transform="scale(1 1) rotate(0) translate(4 169.8)">
<title>dependencies</title>
<polygon fill="white" stroke="transparent" points="-4,4 -4,-169.8 438,-169.8 438,4 -4,4"/>
<text text-anchor="middle" x="217" y="-8.2" font-family="sans-serif" font-size="14.00">dependencies</text>
<g id="clust1" class="cluster">
<title>cluster_SavedPostsPageModule</title>
<polygon fill="none" stroke="black" stroke-dasharray="1,5" points="8,-32.8 8,-157.8 426,-157.8 426,-32.8 8,-32.8"/>
</g>
<g id="clust4" class="cluster">
<title>cluster_SavedPostsPageModule_imports</title>
<polygon fill="none" stroke="black" points="206,-40.8 206,-92.8 418,-92.8 418,-40.8 206,-40.8"/>
</g>
<g id="clust2" class="cluster">
<title>cluster_SavedPostsPageModule_declarations</title>
<polygon fill="none" stroke="black" points="16,-40.8 16,-92.8 198,-92.8 198,-40.8 16,-40.8"/>
</g>
<!-- SavedPostPageComponent -->
<g id="node1" class="node">
<title>SavedPostPageComponent</title>
<polygon fill="#ffffb3" stroke="black" points="190.37,-84.8 23.63,-84.8 23.63,-48.8 190.37,-48.8 190.37,-84.8"/>
<text text-anchor="middle" x="107" y="-62.6" font-family="Times,serif" font-size="14.00">SavedPostPageComponent</text>
</g>
<!-- SavedPostsPageModule -->
<g id="node2" class="node">
<title>SavedPostsPageModule</title>
<polygon fill="#8dd3c7" stroke="black" points="284.04,-149.8 281.04,-153.8 260.04,-153.8 257.04,-149.8 133.96,-149.8 133.96,-113.8 284.04,-113.8 284.04,-149.8"/>
<text text-anchor="middle" x="209" y="-127.6" font-family="Times,serif" font-size="14.00">SavedPostsPageModule</text>
</g>
<!-- SavedPostPageComponent&#45;&gt;SavedPostsPageModule -->
<g id="edge1" class="edge">
<title>SavedPostPageComponent&#45;&gt;SavedPostsPageModule</title>
<path fill="none" stroke="black" d="M162.08,-84.91C162.08,-84.91 162.08,-103.79 162.08,-103.79"/>
<polygon fill="black" stroke="black" points="158.58,-103.79 162.08,-113.79 165.58,-103.79 158.58,-103.79"/>
</g>
<!-- SavedPostsPageRoutingModule -->
<g id="node3" class="node">
<title>SavedPostsPageRoutingModule</title>
<polygon fill="#8dd3c7" stroke="black" points="409.65,-84.8 406.65,-88.8 385.65,-88.8 382.65,-84.8 214.35,-84.8 214.35,-48.8 409.65,-48.8 409.65,-84.8"/>
<text text-anchor="middle" x="312" y="-62.6" font-family="Times,serif" font-size="14.00">SavedPostsPageRoutingModule</text>
</g>
<!-- SavedPostsPageRoutingModule&#45;&gt;SavedPostsPageModule -->
<g id="edge2" class="edge">
<title>SavedPostsPageRoutingModule&#45;&gt;SavedPostsPageModule</title>
<path fill="none" stroke="black" d="M249.22,-84.91C249.22,-84.91 249.22,-103.79 249.22,-103.79"/>
<polygon fill="black" stroke="black" points="245.72,-103.79 249.22,-113.79 252.72,-103.79 245.72,-103.79"/>
</g>
</g>
</svg>
