<?xml version="1.0" encoding="UTF-8" standalone="no"?>
<!DOCTYPE svg PUBLIC "-//W3C//DTD SVG 1.1//EN"
 "http://www.w3.org/Graphics/SVG/1.1/DTD/svg11.dtd">
<!-- Generated by graphviz version 2.47.3 (20210619.1520)
 -->
<!-- Title: dependencies Pages: 1 -->
<svg width="442pt" height="174pt"
 viewBox="0.00 0.00 442.00 173.80" xmlns="http://www.w3.org/2000/svg" xmlns:xlink="http://www.w3.org/1999/xlink">
<g id="graph0" class="graph" transform="scale(1 1) rotate(0) translate(4 169.8)">
<title>dependencies</title>
<polygon fill="white" stroke="transparent" points="-4,4 -4,-169.8 438,-169.8 438,4 -4,4"/>
<text text-anchor="middle" x="217" y="-8.2" font-family="sans-serif" font-size="14.00">dependencies</text>
<g id="clust1" class="cluster">
<title>cluster_SavedPostsPageModule</title>
<polygon fill="none" stroke="black" stroke-dasharray="1,5" points="8,-32.8 8,-157.8 426,-157.8 426,-32.8 8,-32.8"/>
</g>
<g id="clust2" class="cluster">
<title>cluster_SavedPostsPageModule_declarations</title>
<polygon fill="none" stroke="black" points="236,-40.8 236,-92.8 418,-92.8 418,-40.8 236,-40.8"/>
</g>
<g id="clust4" class="cluster">
<title>cluster_SavedPostsPageModule_imports</title>
<polygon fill="none" stroke="black" points="16,-40.8 16,-92.8 228,-92.8 228,-40.8 16,-40.8"/>
</g>
<!-- SavedPostPageComponent -->
<g id="node1" class="node">
<title>SavedPostPageComponent</title>
<polygon fill="#ffffb3" stroke="black" points="410.37,-84.8 243.63,-84.8 243.63,-48.8 410.37,-48.8 410.37,-84.8"/>
<text text-anchor="middle" x="327" y="-62.6" font-family="Times,serif" font-size="14.00">SavedPostPageComponent</text>
</g>
<!-- SavedPostsPageModule -->
<g id="node2" class="node">
<title>SavedPostsPageModule</title>
<polygon fill="#8dd3c7" stroke="black" points="299.04,-149.8 296.04,-153.8 275.04,-153.8 272.04,-149.8 148.96,-149.8 148.96,-113.8 299.04,-113.8 299.04,-149.8"/>
<text text-anchor="middle" x="224" y="-127.6" font-family="Times,serif" font-size="14.00">SavedPostsPageModule</text>
</g>
<!-- SavedPostPageComponent&#45;&gt;SavedPostsPageModule -->
<g id="edge1" class="edge">
<title>SavedPostPageComponent&#45;&gt;SavedPostsPageModule</title>
<path fill="none" stroke="black" d="M271.42,-84.91C271.42,-84.91 271.42,-103.79 271.42,-103.79"/>
<polygon fill="black" stroke="black" points="267.92,-103.79 271.42,-113.79 274.92,-103.79 267.92,-103.79"/>
</g>
<!-- SavedPostsPageRoutingModule -->
<g id="node3" class="node">
<title>SavedPostsPageRoutingModule</title>
<polygon fill="#8dd3c7" stroke="black" points="219.65,-84.8 216.65,-88.8 195.65,-88.8 192.65,-84.8 24.35,-84.8 24.35,-48.8 219.65,-48.8 219.65,-84.8"/>
<text text-anchor="middle" x="122" y="-62.6" font-family="Times,serif" font-size="14.00">SavedPostsPageRoutingModule</text>
</g>
<!-- SavedPostsPageRoutingModule&#45;&gt;SavedPostsPageModule -->
<g id="edge2" class="edge">
<title>SavedPostsPageRoutingModule&#45;&gt;SavedPostsPageModule</title>
<path fill="none" stroke="black" d="M184.28,-84.91C184.28,-84.91 184.28,-103.79 184.28,-103.79"/>
<polygon fill="black" stroke="black" points="180.78,-103.79 184.28,-113.79 187.78,-103.79 180.78,-103.79"/>
</g>
</g>
</svg>
